<?xml version="1.0" encoding="UTF-8" standalone="no"?>
<svg xmlns="http://www.w3.org/2000/svg" width='100%' height='100%' display="none" >
	<g >
		<path stroke="null" d="m19.09382,10.50608l11.48162,-6.11201l12.90522,-3.32407l12.61121,0l12.61121,3.32407l11.20309,6.11201l9.53191,9.42077l6.1586,11.10578l3.37331,12.48443l0,13.03589l-3.37331,12.2087l-6.1586,11.36619l-70.34427,-69.62175z" fill-rule="nonzero" fill="#666" id="svg_2"/>
		<path stroke="null" d="m3.68184,68.76164l-3.65184,-12.2087l0,-13.03589l3.65184,-12.48443l6.43713,-11.10578l69.78721,69.08561l-11.20309,6.9392l-12.61121,3.04835l-12.61121,0l-12.90522,-3.04835l-11.48162,-6.9392l-8.97485,-8.88462l-6.43713,-11.36619z" fill-rule="nonzero" fill="#ccc" id="svg_3"/>
		<path stroke="null" d="m10.11897,19.92685l8.97485,-9.42077l70.34427,69.62175l-9.53191,8.88462l-69.78721,-69.08561z" fill-rule="nonzero" fill="#999" id="svg_4"/>
		<path stroke="#000" d="m3.68184,68.76164l-3.65184,-12.2087l0,-13.03589l3.65184,-12.48443l6.43713,-11.10578l8.97485,-9.42077l11.48162,-6.11201l12.90522,-3.32407l12.61121,0l12.61121,3.32407l11.20309,6.11201l9.53191,9.42077l6.1586,11.10578l3.37331,12.48443l0,13.03589l-3.37331,12.2087l-6.1586,11.36619l-9.53191,8.88462l-11.20309,6.9392l-12.61121,3.04835l-12.61121,0l-12.90522,-3.04835l-11.48162,-6.9392l-8.97485,-8.88462l-6.43713,-11.36619" stroke-width="0.36px" fill="none" id="svg_5"/>
		<path stroke="#000" d="m8.44779,66.54049l-2.52224,-10.81473l0,-11.65724l2.52224,-11.09046l5.88007,-9.71181l8.40232,-8.05744l10.08897,-5.54523l11.21856,-3.32407l11.48162,0l11.21856,3.32407l9.81044,5.54523l7.84526,8.05744l5.88007,9.71181l3.35783,11.09046l0,11.65724l-3.35783,10.81473l-5.88007,10.539l-7.84526,7.76639l-9.81044,5.83628l-11.21856,3.04835l-11.48162,0l-11.21856,-3.04835l-10.08897,-5.83628l-8.40232,-8.31785l-5.88007,-9.98754z" stroke-width="0.36px" fill-rule="nonzero" fill="#6a8dbc" id="svg_6"/>
		<path stroke="null" d="m44.87331,53.5046l-0.83559,-4.16658l-28.30173,-17.20247l1.11412,-2.22116l29.15279,15.25704l4.19342,-1.10292l17.37717,-27.74147l2.24371,1.10292l-15.41199,29.13544l1.11412,4.16658l28.0232,17.4782l-1.11412,1.93011l-29.15279,-15.53277l-4.75048,1.11824l-17.37717,27.46574l-1.40812,-0.84251l15.13346,-28.84439z" fill-rule="nonzero" id="svg_7"/>
		<path stroke="#b2b2b2" d="m16.85011,29.91439l29.15279,15.25704l4.19342,-1.10292l17.37717,-27.74147l2.24371,1.10292l-15.41199,29.13544l1.11412,4.16658l28.0232,17.4782l-1.11412,1.93011l-29.15279,-15.53277l-4.75048,1.11824l-17.37717,27.46574" stroke-width="0.36px" fill="none" id="svg_8"/>
		<path stroke="null" d="m68.13055,15.20881l2.80077,1.11824l-0.55706,1.10292l-2.80077,-1.10292l0.55706,-1.11824z" fill-rule="nonzero" fill="#fff" id="svg_9"/>
		<path stroke="null" d="m29.18279,82.34899l2.52224,1.39397l-1.12959,1.10292l-1.94971,-1.65438l0.55706,-0.84251z" fill-rule="nonzero" fill="#fff" id="svg_10"/>
		<path stroke="null" d="m14.32787,31.58409l1.40812,-2.77262l1.11412,1.10292l-1.68665,2.22116l-0.83559,-0.55146z" fill-rule="nonzero" fill="#fff" id="svg_11"/>
		<path stroke="null" d="m82.42842,70.14029l1.11412,-1.93011l1.40812,0.55146l-1.40812,1.94543l-1.11412,-0.56678z" fill-rule="nonzero" fill="#fff" id="svg_12"/>
		<animateTransform id='rr' attributeType="auto" attributeName="transform" begin="0s" dur="2s" type="rotate" from="0 50 50" to="360 50 50" repeatCount="indefinite" />
	</g>
</svg>