<svg xmlns="http://www.w3.org/2000/svg">
	//1
	<symbol viewBox="0 0 1000 1000"  id="leanloop-fan-svg" >
		<g >
			<path d="M155.99 35.00 L155.99 191.48 L56.19 191.48 L56.19 35.00 L155.99 35.00 Z" style="fill:#bedbf7;fill-rule:nonzero;" />
			<path d="M85.17 35.00 L126.83 191.48 L56.19 191.48 L56.19 35.00 L85.17 35.00 Z" style="fill:#c6d6e5;fill-rule:nonzero;" />
			<path d="M80.83 35.00 L122.48 191.48 L56.19 191.48 L56.19 35.00 L80.83 35.00 Z" style="fill:#fff;fill-rule:nonzero;" />
			<path d="M74.67 35.00 L116.32 191.48 L56.19 191.48 L56.19 35.00 L74.67 35.00 Z" style="fill:#c3e0fd;fill-rule:nonzero;" />
			<path d="M155.99 35.00 L155.99 191.48 L56.19 191.48 L56.19 35.00 L155.99 35.00" style="fill:none;stroke:#000;stroke-width:0.36px;" />
			<path d="M155.99 113.24 L57.28 113.24" style="fill:none;stroke:#036;stroke-width:0.36px;" />
			<path d="M148.74 138.06 L148.74 184.24 L63.26 184.24 L63.26 138.06 L148.74 138.06 Z" style="fill:#f9f9f9;fill-rule:nonzero;" />
			<path d="M145.30 177.00 L145.30 138.06 L148.74 138.06 L148.74 184.24 L145.30 177.00 Z" style="fill:#b5cce4;fill-rule:nonzero;" />
			<path d="M59.82 47.32 L59.82 50.04 L57.82 50.04 L57.82 47.32 L59.82 47.32 Z" style="fill:#003;fill-rule:nonzero;" />
			<path d="M59.82 68.69 L59.82 71.59 L57.82 71.59 L57.82 68.69 L59.82 68.69 Z" style="fill:#003;fill-rule:nonzero;" />
			<path d="M59.82 90.24 L59.82 92.96 L57.82 92.96 L57.82 90.24 L59.82 90.24 Z" style="fill:#003;fill-rule:nonzero;" />
			<path d="M59.82 111.80 L59.82 114.51 L57.82 114.51 L57.82 111.80 L59.82 111.80 Z" style="fill:#003;fill-rule:nonzero;" />
			<path d="M59.82 133.35 L59.82 136.06 L57.82 136.06 L57.82 133.35 L59.82 133.35 Z" style="fill:#003;fill-rule:nonzero;" />
			<path d="M59.82 154.54 L59.82 157.62 L57.82 157.62 L57.82 154.54 L59.82 154.54 Z" style="fill:#003;fill-rule:nonzero;" />
			<path d="M59.82 176.09 L59.82 178.81 L57.82 178.81 L57.82 176.09 L59.82 176.09 Z" style="fill:#003;fill-rule:nonzero;" />
			<path d="M153.81 47.32 L153.81 50.04 L152.18 50.04 L152.18 47.32 L153.81 47.32 Z" style="fill:#003;fill-rule:nonzero;" />
			<path d="M153.81 68.69 L153.81 71.59 L152.18 71.59 L152.18 68.69 L153.81 68.69 Z" style="fill:#003;fill-rule:nonzero;" />
			<path d="M153.81 90.24 L153.81 92.96 L152.18 92.96 L152.18 90.24 L153.81 90.24 Z" style="fill:#003;fill-rule:nonzero;" />
			<path d="M153.81 111.80 L153.81 114.51 L152.18 114.51 L152.18 111.80 L153.81 111.80 Z" style="fill:#003;fill-rule:nonzero;" />
			<path d="M153.81 133.35 L153.81 136.06 L152.18 136.06 L152.18 133.35 L153.81 133.35 Z" style="fill:#003;fill-rule:nonzero;" />
			<path d="M153.81 154.54 L153.81 157.62 L152.18 157.62 L152.18 154.54 L153.81 154.54 Z" style="fill:#003;fill-rule:nonzero;" />
			<path d="M153.81 176.09 L153.81 178.81 L152.18 178.81 L152.18 176.09 L153.81 176.09 Z" style="fill:#003;fill-rule:nonzero;" />
			<path d="M153.81 47.32 L153.81 50.04" style="fill:none;stroke:#9cf;stroke-width:0.36px;" />
			<path d="M153.81 68.69 L153.81 71.59" style="fill:none;stroke:#9cf;stroke-width:0.36px;" />
			<path d="M153.81 90.24 L153.81 92.96" style="fill:none;stroke:#9cf;stroke-width:0.36px;" />
			<path d="M153.81 111.80 L153.81 114.51" style="fill:none;stroke:#9cf;stroke-width:0.36px;" />
			<path d="M153.81 133.35 L153.81 136.06" style="fill:none;stroke:#9cf;stroke-width:0.36px;" />
			<path d="M153.81 154.90 L153.81 157.25" style="fill:none;stroke:#9cf;stroke-width:0.36px;" />
			<path d="M153.81 176.45 L153.81 178.81" style="fill:none;stroke:#9cf;stroke-width:0.36px;" />
			<path d="M59.82 47.32 L59.82 50.04" style="fill:none;stroke:#9cf;stroke-width:0.36px;" />
			<path d="M59.82 68.69 L59.82 71.59" style="fill:none;stroke:#9cf;stroke-width:0.36px;" />
			<path d="M59.82 90.24 L59.82 92.96" style="fill:none;stroke:#9cf;stroke-width:0.36px;" />
			<path d="M59.82 111.80 L59.82 114.51" style="fill:none;stroke:#9cf;stroke-width:0.36px;" />
			<path d="M59.82 133.35 L59.82 136.06" style="fill:none;stroke:#9cf;stroke-width:0.36px;" />
			<path d="M59.82 154.90 L59.82 157.25" style="fill:none;stroke:#9cf;stroke-width:0.36px;" />
			<path d="M59.82 176.45 L59.82 178.81" style="fill:none;stroke:#9cf;stroke-width:0.36px;" />
			<path d="M127.19 36.63 L127.19 35.00 L84.45 35.00 L84.45 36.63 L127.19 36.63 Z" style="fill:#194c7f;fill-rule:nonzero;" />
			<path d="M127.19 25.51 L127.19 35.00 L84.45 35.00 L84.45 25.51 L127.19 25.51 Z" style="fill:#edf6ff;fill-rule:nonzero;stroke:#000;stroke-width:0.31px;" />
			<path d="M63.26 177.00 L145.30 177.00 L148.74 184.24 L63.26 184.24 L63.26 177.00 Z" style="fill:#c9ddf2;fill-rule:nonzero;" />
			<path d="M148.74 138.06 L148.74 184.24 L63.26 184.24 L63.26 138.06 L148.74 138.06" style="fill:none;stroke:#000;stroke-width:0.36px;" />
		</g>
	</symbol>
	<symbol viewBox="0 0 1000 1000"  id="leanloop-circle-svg" >
		<g >
			<path d="M86.26 48.23 L93.68 44.24 L102.02 42.07 L110.17 42.07 L118.32 44.24 L125.56 48.23 L131.72 54.38 L135.70 61.63 L137.88 69.78 L137.88 78.29 L135.70 86.26 L131.72 93.68 L86.26 48.23 Z" style="fill:#666;fill-rule:nonzero;" />
			<path d="M76.30 86.26 L73.94 78.29 L73.94 69.78 L76.30 61.63 L80.46 54.38 L125.56 99.48 L118.32 104.01 L110.17 106.00 L102.02 106.00 L93.68 104.01 L86.26 99.48 L80.46 93.68 L76.30 86.26 Z" style="fill:#ccc;fill-rule:nonzero;" />
			<path d="M80.46 54.38 L86.26 48.23 L131.72 93.68 L125.56 99.48 L80.46 54.38 Z" style="fill:#999;fill-rule:nonzero;" />
			<path d="M76.30 86.26 L73.94 78.29 L73.94 69.78 L76.30 61.63 L80.46 54.38 L86.26 48.23 L93.68 44.24 L102.02 42.07 L110.17 42.07 L118.32 44.24 L125.56 48.23 L131.72 54.38 L135.70 61.63 L137.88 69.78 L137.88 78.29 L135.70 86.26 L131.72 93.68 L125.56 99.48 L118.32 104.01 L110.17 106.00 L102.02 106.00 L93.68 104.01 L86.26 99.48 L80.46 93.68 L76.30 86.26" style="fill:none;stroke:#000;stroke-width:0.36px;" />
			<path d="M79.38 84.81 L77.75 77.75 L77.75 70.14 L79.38 62.90 L83.18 56.56 L88.61 51.30 L95.13 47.68 L102.38 45.51 L109.80 45.51 L117.05 47.68 L123.39 51.30 L128.46 56.56 L132.26 62.90 L134.43 70.14 L134.43 77.75 L132.26 84.81 L128.46 91.69 L123.39 96.76 L117.05 100.57 L109.80 102.56 L102.38 102.56 L95.13 100.57 L88.61 96.76 L83.18 91.33 L79.38 84.81 Z" style="fill:#6a8dbc;fill-rule:nonzero;stroke:#000;stroke-width:0.36px;" />
			<path d="M102.92 76.30 L102.38 73.58 L84.09 62.35 L84.81 60.90 L103.65 70.86 L106.36 70.14 L117.59 52.03 L119.04 52.75 L109.08 71.77 L109.80 74.49 L127.91 85.90 L127.19 87.16 L108.35 77.02 L105.28 77.75 L94.05 95.68 L93.14 95.13 L102.92 76.30 Z" style="fill-rule:nonzero;" />
			<path d="M84.81 60.90 L103.65 70.86 L106.36 70.14 L117.59 52.03 L119.04 52.75 L109.08 71.77 L109.80 74.49 L127.91 85.90 L127.19 87.16 L108.35 77.02 L105.28 77.75 L94.05 95.68" style="fill:none;stroke:#b2b2b2;stroke-width:0.36px;" />
			<path d="M117.95 51.30 L119.76 52.03 L119.40 52.75 L117.59 52.03 L117.95 51.30 Z" style="fill:#fff;fill-rule:nonzero;" />
			<path d="M92.78 95.13 L94.41 96.04 L93.68 96.76 L92.42 95.68 L92.78 95.13 Z" style="fill:#fff;fill-rule:nonzero;" />
			<path d="M83.18 61.99 L84.09 60.18 L84.81 60.90 L83.72 62.35 L83.18 61.99 Z" style="fill:#fff;fill-rule:nonzero;" />
			<path d="M127.19 87.16 L127.91 85.90 L128.82 86.26 L127.91 87.53 L127.19 87.16 Z" style="fill:#fff;fill-rule:nonzero;" />
			<animateTransform id='rr' attributeType="auto" attributeName="transform" begin="0s" dur="2s" type="rotate" from="0 110 110" to="360 110 110" repeatCount="indefinite" />
		</g>
	</symbol>
	//2
	<symbol id="leanloop-Chassis-svg" viewBox="0 0 1000 1000">
		<g>
			<path d="M28.00 28.00 L735.00 28.00 L735.00 970.00 L28.00 970.00 L28.00 28.00 Z" style="fill:#ccc;stroke:#000;stroke-width:2" />
			<path d="M687.00 859.00 L645.00 859.00 L605.00 856.00 L569.00 853.00 L538.00 848.00 L513.00 842.00 L486.00 832.00 L478.00 824.00 L476.00 821.00 L478.00 817.00 L502.00 802.00 L538.00 794.00 L569.00 789.00 L605.00 785.00 L645.00 783.00 L687.00 782.00 L687.00 730.00 L673.00 730.00 L645.00 731.00 L617.00 733.00 L578.00 737.00 L542.00 743.00 L509.00 751.00 L479.00 760.00 L455.00 770.00 L429.00 786.00 L410.00 807.00 L407.00 816.00 L406.00 821.00 L407.00 825.00 L419.00 848.00 L440.00 864.00 L471.00 878.00 L499.00 888.00 L531.00 896.00 L566.00 902.00 L604.00 907.00 L631.00 910.00 L658.00 911.00 L673.00 911.00 L687.00 911.00 L735.00 911.00 L735.00 859.00 L687.00 859.00 Z" style="fill:#999;stroke:#000;stroke-width:2" />
			<path d="M75.00 859.00 L117.00 859.00 L157.00 856.00 L194.00 853.00 L225.00 848.00 L251.00 842.00 L278.00 832.00 L287.00 824.00 L288.00 821.00 L287.00 817.00 L262.00 802.00 L225.00 794.00 L194.00 789.00 L157.00 785.00 L117.00 783.00 L75.00 782.00 L75.00 730.00 L90.00 730.00 L118.00 731.00 L146.00 733.00 L185.00 737.00 L222.00 743.00 L255.00 751.00 L285.00 760.00 L310.00 770.00 L336.00 786.00 L355.00 807.00 L358.00 816.00 L358.00 821.00 L358.00 825.00 L346.00 848.00 L324.00 864.00 L294.00 878.00 L266.00 888.00 L234.00 896.00 L198.00 902.00 L159.00 907.00 L132.00 910.00 L104.00 911.00 L90.00 911.00 L75.00 911.00 L28.00 911.00 L28.00 859.00 L75.00 859.00 Z" style="fill:#999;stroke:#000;stroke-width:2" />
			<path d="M687.00 782.00 L687.00 730.00 L666.00 730.00 L645.00 729.00 L625.00 728.00 L605.00 727.00 L587.00 725.00 L569.00 723.00 L553.00 721.00 L538.00 718.00 L525.00 716.00 L513.00 713.00 L502.00 710.00 L493.00 706.00 L481.00 699.00 L478.00 695.00 L476.00 692.00 L478.00 688.00 L486.00 681.00 L493.00 677.00 L502.00 674.00 L513.00 671.00 L525.00 668.00 L538.00 665.00 L553.00 662.00 L569.00 660.00 L587.00 658.00 L605.00 656.00 L625.00 655.00 L645.00 654.00 L666.00 654.00 L687.00 653.00 L687.00 601.00 L673.00 601.00 L658.00 601.00 L645.00 602.00 L631.00 603.00 L617.00 604.00 L604.00 605.00 L591.00 606.00 L578.00 608.00 L566.00 610.00 L554.00 612.00 L542.00 614.00 L531.00 616.00 L519.00 619.00 L509.00 622.00 L499.00 625.00 L489.00 628.00 L479.00 631.00 L471.00 634.00 L462.00 637.00 L455.00 641.00 L447.00 645.00 L434.00 652.00 L423.00 661.00 L415.00 669.00 L410.00 678.00 L407.00 687.00 L406.00 692.00 L407.00 696.00 L410.00 705.00 L415.00 714.00 L423.00 723.00 L434.00 731.00 L447.00 738.00 L455.00 742.00 L462.00 746.00 L471.00 749.00 L479.00 752.00 L489.00 755.00 L499.00 758.00 L509.00 761.00 L519.00 764.00 L531.00 767.00 L542.00 769.00 L554.00 771.00 L566.00 773.00 L578.00 775.00 L591.00 776.00 L604.00 778.00 L617.00 779.00 L631.00 780.00 L645.00 781.00 L658.00 782.00 L673.00 782.00 L687.00 782.00 Z" style="fill:#999;stroke:#000;stroke-width:2" />
			<path d="M75.00 782.00 L75.00 730.00 L117.00 729.00 L157.00 727.00 L194.00 723.00 L225.00 718.00 L251.00 713.00 L278.00 703.00 L287.00 695.00 L288.00 692.00 L287.00 688.00 L262.00 674.00 L225.00 665.00 L194.00 660.00 L157.00 656.00 L117.00 654.00 L97.00 654.00 L75.00 653.00 L75.00 601.00 L104.00 601.00 L132.00 603.00 L159.00 605.00 L198.00 610.00 L234.00 616.00 L266.00 625.00 L294.00 634.00 L317.00 645.00 L341.00 661.00 L357.00 683.00 L358.00 687.00 L358.00 692.00 L358.00 696.00 L346.00 718.00 L324.00 735.00 L294.00 749.00 L266.00 758.00 L234.00 767.00 L198.00 773.00 L159.00 778.00 L132.00 780.00 L104.00 782.00 L90.00 782.00 L75.00 782.00 Z" style="fill:#999;stroke:#000;stroke-width:2" />
			<path d="M687.00 653.00 L687.00 601.00 L666.00 601.00 L645.00 600.00 L625.00 599.00 L605.00 598.00 L587.00 596.00 L569.00 595.00 L553.00 592.00 L538.00 590.00 L525.00 587.00 L513.00 585.00 L502.00 581.00 L493.00 578.00 L481.00 571.00 L478.00 566.00 L476.00 562.00 L478.00 559.00 L486.00 551.00 L493.00 548.00 L502.00 544.00 L513.00 541.00 L525.00 538.00 L538.00 536.00 L553.00 533.00 L569.00 531.00 L587.00 529.00 L605.00 527.00 L625.00 526.00 L645.00 525.00 L666.00 524.00 L687.00 524.00 L687.00 474.00 L673.00 474.00 L658.00 474.00 L645.00 475.00 L631.00 476.00 L617.00 477.00 L604.00 478.00 L591.00 479.00 L578.00 481.00 L566.00 483.00 L554.00 485.00 L542.00 487.00 L531.00 489.00 L519.00 491.00 L509.00 494.00 L499.00 497.00 L489.00 499.00 L479.00 503.00 L471.00 506.00 L462.00 509.00 L455.00 513.00 L447.00 516.00 L434.00 524.00 L423.00 531.00 L415.00 540.00 L410.00 549.00 L407.00 558.00 L406.00 562.00 L407.00 567.00 L410.00 576.00 L415.00 585.00 L423.00 593.00 L434.00 602.00 L447.00 609.00 L455.00 613.00 L462.00 617.00 L471.00 620.00 L479.00 623.00 L489.00 626.00 L499.00 629.00 L509.00 632.00 L519.00 635.00 L531.00 638.00 L542.00 640.00 L554.00 642.00 L566.00 644.00 L578.00 646.00 L591.00 648.00 L604.00 649.00 L617.00 650.00 L631.00 651.00 L645.00 652.00 L658.00 653.00 L673.00 653.00 L687.00 653.00 Z" style="fill:#b2b2b2;stroke:#000;stroke-width:2" />
			<path d="M75.00 653.00 L75.00 601.00 L117.00 600.00 L157.00 598.00 L194.00 595.00 L225.00 590.00 L251.00 585.00 L278.00 574.00 L287.00 566.00 L288.00 562.00 L287.00 559.00 L262.00 544.00 L225.00 536.00 L194.00 531.00 L157.00 527.00 L117.00 525.00 L97.00 524.00 L75.00 524.00 L75.00 474.00 L104.00 474.00 L132.00 476.00 L159.00 478.00 L198.00 483.00 L234.00 489.00 L266.00 497.00 L294.00 506.00 L317.00 516.00 L341.00 531.00 L357.00 553.00 L358.00 558.00 L358.00 562.00 L358.00 567.00 L346.00 589.00 L324.00 605.00 L294.00 620.00 L266.00 629.00 L234.00 638.00 L198.00 644.00 L159.00 649.00 L132.00 651.00 L104.00 653.00 L90.00 653.00 L75.00 653.00 Z" style="fill:#b2b2b2;stroke:#000;stroke-width:2" />
			<path d="M687.00 524.00 L687.00 472.00 L666.00 472.00 L645.00 471.00 L625.00 470.00 L605.00 469.00 L587.00 467.00 L569.00 466.00 L553.00 464.00 L538.00 461.00 L525.00 458.00 L513.00 456.00 L502.00 452.00 L493.00 449.00 L481.00 442.00 L478.00 438.00 L476.00 433.00 L478.00 430.00 L486.00 422.00 L493.00 419.00 L502.00 415.00 L513.00 412.00 L525.00 409.00 L538.00 407.00 L553.00 404.00 L569.00 402.00 L587.00 400.00 L605.00 398.00 L625.00 397.00 L645.00 396.00 L666.00 395.00 L687.00 395.00 L687.00 345.00 L673.00 345.00 L658.00 345.00 L645.00 346.00 L631.00 347.00 L617.00 348.00 L604.00 349.00 L591.00 350.00 L578.00 352.00 L566.00 354.00 L554.00 356.00 L542.00 358.00 L531.00 360.00 L519.00 363.00 L509.00 366.00 L499.00 368.00 L489.00 371.00 L479.00 374.00 L471.00 378.00 L462.00 381.00 L455.00 384.00 L447.00 388.00 L434.00 396.00 L423.00 404.00 L415.00 412.00 L410.00 420.00 L407.00 429.00 L406.00 433.00 L407.00 438.00 L410.00 447.00 L415.00 456.00 L423.00 464.00 L434.00 473.00 L447.00 480.00 L455.00 484.00 L462.00 487.00 L471.00 491.00 L479.00 494.00 L489.00 497.00 L499.00 500.00 L509.00 503.00 L519.00 506.00 L531.00 508.00 L542.00 511.00 L554.00 513.00 L566.00 515.00 L578.00 517.00 L591.00 518.00 L604.00 520.00 L617.00 521.00 L631.00 522.00 L645.00 523.00 L658.00 524.00 L673.00 524.00 L687.00 524.00 Z" style="fill:#b2b2b2;stroke:#000;stroke-width:2" />
			<path d="M75.00 524.00 L75.00 472.00 L117.00 471.00 L157.00 469.00 L194.00 466.00 L225.00 461.00 L251.00 456.00 L278.00 445.00 L287.00 438.00 L288.00 433.00 L287.00 430.00 L262.00 415.00 L225.00 407.00 L194.00 402.00 L157.00 398.00 L117.00 396.00 L97.00 395.00 L75.00 395.00 L75.00 345.00 L104.00 345.00 L132.00 347.00 L159.00 349.00 L198.00 354.00 L234.00 360.00 L266.00 368.00 L294.00 378.00 L317.00 388.00 L341.00 404.00 L357.00 425.00 L358.00 429.00 L358.00 433.00 L358.00 438.00 L346.00 460.00 L324.00 476.00 L294.00 491.00 L266.00 500.00 L234.00 508.00 L198.00 515.00 L159.00 520.00 L132.00 522.00 L104.00 524.00 L90.00 524.00 L75.00 524.00 Z" style="fill:#b2b2b2;stroke:#000;stroke-width:2" />
			<path d="M687.00 395.00 L687.00 345.00 L666.00 344.00 L645.00 344.00 L625.00 343.00 L605.00 342.00 L587.00 340.00 L569.00 338.00 L553.00 336.00 L538.00 333.00 L525.00 330.00 L513.00 327.00 L502.00 324.00 L493.00 321.00 L481.00 314.00 L478.00 310.00 L476.00 306.00 L478.00 302.00 L486.00 294.00 L493.00 291.00 L502.00 288.00 L513.00 284.00 L525.00 281.00 L538.00 278.00 L553.00 276.00 L569.00 274.00 L587.00 272.00 L605.00 271.00 L625.00 269.00 L645.00 269.00 L666.00 268.00 L687.00 268.00 L687.00 216.00 L673.00 216.00 L658.00 216.00 L645.00 217.00 L631.00 218.00 L617.00 219.00 L604.00 220.00 L591.00 222.00 L578.00 223.00 L566.00 225.00 L554.00 227.00 L542.00 229.00 L531.00 231.00 L519.00 234.00 L509.00 237.00 L499.00 240.00 L489.00 242.00 L479.00 246.00 L471.00 249.00 L462.00 252.00 L455.00 256.00 L447.00 260.00 L434.00 267.00 L423.00 275.00 L415.00 284.00 L410.00 293.00 L407.00 302.00 L406.00 306.00 L407.00 311.00 L410.00 320.00 L415.00 328.00 L423.00 336.00 L434.00 344.00 L447.00 352.00 L455.00 355.00 L462.00 359.00 L471.00 362.00 L479.00 366.00 L489.00 369.00 L499.00 372.00 L509.00 374.00 L519.00 377.00 L531.00 379.00 L542.00 382.00 L554.00 384.00 L566.00 386.00 L578.00 388.00 L591.00 389.00 L604.00 391.00 L617.00 392.00 L631.00 393.00 L645.00 394.00 L658.00 395.00 L673.00 395.00 L687.00 395.00 Z" style="fill:#e5e5e5;stroke:#000;stroke-width:2" />
			<path d="M75.00 395.00 L75.00 345.00 L117.00 344.00 L157.00 342.00 L194.00 338.00 L225.00 333.00 L251.00 327.00 L278.00 317.00 L287.00 310.00 L288.00 306.00 L287.00 302.00 L262.00 288.00 L225.00 278.00 L194.00 274.00 L157.00 271.00 L117.00 269.00 L97.00 268.00 L75.00 268.00 L75.00 216.00 L104.00 216.00 L132.00 218.00 L159.00 220.00 L198.00 225.00 L234.00 231.00 L266.00 240.00 L294.00 249.00 L317.00 260.00 L341.00 275.00 L357.00 297.00 L358.00 302.00 L358.00 306.00 L358.00 311.00 L341.00 336.00 L317.00 352.00 L294.00 362.00 L266.00 372.00 L234.00 379.00 L198.00 386.00 L159.00 391.00 L132.00 393.00 L104.00 395.00 L90.00 395.00 L75.00 395.00 Z" style="fill:#e5e5e5;stroke:#000;stroke-width:2" />
			<path d="M75.00 87.00 L104.00 87.00 L132.00 88.00 L159.00 91.00 L198.00 96.00 L234.00 102.00 L266.00 110.00 L294.00 120.00 L317.00 130.00 L341.00 146.00 L357.00 168.00 L358.00 173.00 L358.00 177.00 L358.00 182.00 L346.00 204.00 L324.00 220.00 L294.00 235.00 L266.00 244.00 L234.00 252.00 L198.00 259.00 L159.00 264.00 L132.00 266.00 L104.00 268.00 L90.00 268.00 L75.00 268.00 L75.00 216.00 L117.00 215.00 L157.00 213.00 L194.00 209.00 L225.00 204.00 L251.00 199.00 L278.00 188.00 L287.00 181.00 L288.00 177.00 L287.00 173.00 L262.00 159.00 L225.00 150.00 L194.00 145.00 L157.00 142.00 L117.00 139.00 L75.00 139.00 L28.00 139.00 L28.00 87.00 L75.00 87.00 Z" style="fill:#e5e5e5;stroke:#000;stroke-width:2" />
			<path d="M687.00 87.00 L658.00 87.00 L631.00 88.00 L604.00 91.00 L566.00 96.00 L531.00 102.00 L499.00 110.00 L471.00 120.00 L447.00 130.00 L423.00 146.00 L408.00 168.00 L407.00 173.00 L406.00 177.00 L407.00 182.00 L419.00 204.00 L440.00 220.00 L471.00 235.00 L499.00 244.00 L531.00 252.00 L566.00 259.00 L604.00 264.00 L631.00 266.00 L658.00 268.00 L673.00 268.00 L687.00 268.00 L687.00 216.00 L645.00 215.00 L605.00 213.00 L569.00 209.00 L538.00 204.00 L513.00 199.00 L486.00 188.00 L478.00 181.00 L476.00 177.00 L478.00 173.00 L502.00 159.00 L538.00 150.00 L569.00 145.00 L605.00 142.00 L645.00 139.00 L687.00 139.00 L735.00 139.00 L735.00 87.00 L687.00 87.00 Z" style="fill:#e5e5e5;stroke:#000;stroke-width:2" />
		</g>
	</symbol>
	//3
	<symbol id="leanloop-box-svg" viewBox="0 0 1000 1000">
		<g >
			<path d="M43.27 48.94 L51.33 34.50 L307.73 34.50 L316.73 48.94 L43.27 48.94 Z" style="fill:#ccc;fill-rule:nonzero;stroke:#000;stroke-width:0.71px;"/>
			<path d="M316.73 43.33 L316.73 48.94 L43.27 48.94 L43.27 43.33 L51.33 39.31 L62.70 37.23 L74.08 35.94 L87.82 34.82 L102.99 33.70 L120.52 32.89 L139.01 32.25 L152.28 31.93 L166.02 31.77 L193.98 31.77 L207.25 31.93 L220.52 32.25 L239.01 32.89 L256.07 33.70 L271.71 34.82 L285.45 35.94 L296.83 37.23 L308.20 39.31 L316.26 42.68 L316.73 43.33 Z" style="fill:#e5e5e5;fill-rule:nonzero;stroke:#000;stroke-width:0.71px;"/>
			<path d="M207.73 44.77 L204.88 38.99 L154.17 38.99 L152.28 44.77 L43.27 44.77 L43.27 48.94 L316.73 48.94 L316.73 44.77 L207.73 44.77 Z" style="fill:#ccc;fill-rule:nonzero;"/>
			<rect x="158.436" y="37.548" rx="0" ry="0" width="41.706" height="1.444" style="fill:#ccc;fill-rule:nonzero;stroke:#000;stroke-width:0.71px;"/>
			<path d="M154.17 37.55 L155.59 30.81 L202.99 30.81 L204.88 37.55 L154.17 37.55 Z" style="fill:#4c4c4c;fill-rule:nonzero;stroke:#000;stroke-width:0.71px;"/>
			<path d="M170.76 30.81 L171.71 30.33 L186.87 30.33 L187.82 30.81 L170.76 30.81 Z" style="fill:#666;fill-rule:nonzero;stroke:#000;stroke-width:0.71px;"/>
			<path d="M316.73 181.51 L316.73 48.94 L43.27 48.94 L43.27 181.51 L93.98 181.51 L93.98 174.93 L154.17 174.93 L154.17 181.51 L204.88 181.51 L204.88 174.93 L264.60 174.93 L264.60 181.51 L316.73 181.51 Z" style="fill:#ccc;fill-rule:nonzero;"/>
			<path d="M290.66 181.51 L290.66 48.94 L67.92 48.94 L67.92 181.51 L93.98 181.51 L93.98 174.93 L154.17 174.93 L154.17 181.51 L204.88 181.51 L204.88 174.93 L264.60 174.93 L264.60 181.51 L290.66 181.51 Z" style="fill:#dbdbdb;fill-rule:nonzero;"/>
			<path d="M247.54 48.94 L111.04 48.94 L111.04 174.93 L154.17 174.93 L154.17 181.51 L204.88 181.51 L204.88 174.93 L247.54 174.93 L247.54 48.94 Z" style="fill:#ededed;fill-rule:nonzero;"/>
			<rect x="158.436" y="48.943" rx="0" ry="0" width="41.706" height="132.570" style="fill:#fff;fill-rule:nonzero;"/>
			<path d="M316.73 181.51 L316.73 48.94 L43.27 48.94 L43.27 181.51 L93.98 181.51 L93.98 174.93 L154.17 174.93 L154.17 181.51 L204.88 181.51 L204.88 174.93 L264.60 174.93 L264.60 181.51 L316.73 181.51" style="fill:none;stroke:#000;stroke-width:0.71px;"/>
			<path d="M207.73 44.77 L204.88 38.99 L154.17 38.99 L152.28 44.77 L67.92 44.77 L67.92 48.94 L290.66 48.94 L290.66 44.77 L207.73 44.77 Z" style="fill:#dbdbdb;fill-rule:nonzero;"/>
			<path d="M207.73 44.77 L204.88 38.99 L154.17 38.99 L152.28 44.77 L111.04 44.77 L111.04 48.94 L247.54 48.94 L247.54 44.77 L207.73 44.77 Z" style="fill:#ededed;fill-rule:nonzero;"/>
			<rect x="158.436" y="38.993" rx="0" ry="0" width="41.706" height="9.951" style="fill:#fff;fill-rule:nonzero;"/>
			<path d="M207.73 44.77 L204.88 38.99 L154.17 38.99 L152.28 44.77 L43.27 44.77 L43.27 48.94 L316.73 48.94 L316.73 44.77 L207.73 44.77" style="fill:none;stroke:#000;stroke-width:0.71px;"/>
			<rect x="93.981" y="174.933" rx="0" ry="0" width="43.128" height="3.049" style="fill:#4c4c4c;fill-rule:nonzero;stroke:#000;stroke-width:0.71px;"/>
			<rect x="221.943" y="174.933" rx="0" ry="0" width="42.654" height="3.049" style="fill:#4c4c4c;fill-rule:nonzero;stroke:#000;stroke-width:0.71px;"/>
			<rect x="155.592" y="40.598" rx="0" ry="0" width="19.905" height="1.123" style="fill:#7f7f7f;fill-rule:nonzero;stroke:#000;stroke-width:0.71px;"/>
		</g>
	</symbol>
	//4
	<symbol id="leanloop-box1-svg" viewBox="0 0 1000 1000">
		<g>
			<path d="M83.29 389.78 L75.10 380.50 L75.10 64.41 L56.54 64.41 L56.54 56.22 L489.46 56.22 L489.46 64.41 L471.45 64.41 L471.45 380.50 L462.71 389.78 L83.29 389.78 Z" style="fill:#e5e5e5;fill-rule:nonzero;stroke:#000;stroke-width:1.09px;"/>
			<path d="M226.02 341.77 L216.97 332.49 L216.97 223.38 L226.02 214.33 L415.96 214.33 L425.02 223.38 L425.02 332.49 L415.96 341.77 L226.02 341.77 Z" style="fill:#999;fill-rule:nonzero;stroke:#000;stroke-width:0.44px;"/>
			<rect x="221.384" y="223.384" rx="0" ry="0" width="199.219" height="109.106" style="fill:#191919;fill-rule:nonzero;"/>
			<path d="M237.29 234.65 L244.35 234.65 L244.35 232.88 L239.05 228.02 L231.54 228.02 L226.02 232.88 L226.02 318.80 L232.65 318.80 L232.65 234.65 L235.30 233.32 L237.29 234.65 Z" style="fill:#930;fill-rule:nonzero;"/>
			<path d="M248.55 318.80 L255.62 318.80 L255.62 320.34 L250.32 325.86 L242.81 325.86 L237.29 320.34 L237.29 234.65 L244.35 234.65 L244.35 318.80 L246.56 320.12 L248.55 318.80 Z" style="fill:#930;fill-rule:nonzero;"/>
			<path d="M260.26 234.65 L266.88 234.65 L266.88 232.88 L261.80 228.02 L253.85 228.02 L248.99 232.88 L248.99 318.80 L255.62 318.80 L255.62 234.65 L257.61 233.32 L260.26 234.65 Z" style="fill:#930;fill-rule:nonzero;"/>
			<path d="M271.52 318.80 L278.59 318.80 L278.59 320.34 L273.07 325.86 L265.56 325.86 L260.26 320.34 L260.26 234.65 L266.88 234.65 L266.88 318.80 L269.31 320.12 L271.52 318.80 Z" style="fill:#930;fill-rule:nonzero;"/>
			<path d="M282.78 234.65 L289.63 234.65 L289.63 232.88 L284.33 228.02 L276.82 228.02 L271.52 232.88 L271.52 318.80 L278.59 318.80 L278.59 234.65 L280.58 233.32 L282.78 234.65 Z" style="fill:#930;fill-rule:nonzero;"/>
			<path d="M294.27 318.80 L301.11 318.80 L301.11 320.34 L295.59 325.86 L288.08 325.86 L282.78 320.34 L282.78 234.65 L289.63 234.65 L289.63 318.80 L291.84 320.12 L294.27 318.80 Z" style="fill:#930;fill-rule:nonzero;"/>
			<path d="M305.53 234.65 L312.60 234.65 L312.60 232.88 L307.30 228.02 L299.79 228.02 L294.27 232.88 L294.27 318.80 L301.11 318.80 L301.11 234.65 L303.54 233.32 L305.53 234.65 Z" style="fill:#930;fill-rule:nonzero;"/>
			<path d="M316.80 318.80 L323.86 318.80 L323.86 320.34 L318.56 325.86 L311.05 325.86 L305.53 320.34 L305.53 234.65 L312.60 234.65 L312.60 318.80 L314.81 320.12 L316.80 318.80 Z" style="fill:#930;fill-rule:nonzero;"/>
			<path d="M328.50 234.65 L335.13 234.65 L335.13 232.88 L329.61 228.02 L322.32 228.02 L316.80 232.88 L316.80 318.80 L323.86 318.80 L323.86 234.65 L326.07 233.32 L328.50 234.65 Z" style="fill:#930;fill-rule:nonzero;"/>
			<path d="M339.77 318.80 L346.39 318.80 L346.39 320.34 L341.31 325.86 L333.80 325.86 L328.50 320.34 L328.50 234.65 L335.13 234.65 L335.13 318.80 L337.56 320.12 L339.77 318.80 Z" style="fill:#930;fill-rule:nonzero;"/>
			<path d="M351.03 234.65 L358.10 234.65 L358.10 232.88 L352.58 228.02 L345.07 228.02 L339.77 232.88 L339.77 318.80 L346.83 318.80 L346.83 234.65 L348.82 233.32 L351.03 234.65 Z" style="fill:#930;fill-rule:nonzero;"/>
			<path d="M362.74 318.80 L369.36 318.80 L369.36 320.34 L363.84 325.86 L356.33 325.86 L351.03 320.34 L351.03 234.65 L358.10 234.65 L358.10 318.80 L360.09 320.12 L362.74 318.80 Z" style="fill:#930;fill-rule:nonzero;"/>
			<path d="M373.78 234.65 L380.63 234.65 L380.63 232.88 L375.55 228.02 L368.04 228.02 L362.74 232.88 L362.74 318.80 L369.36 318.80 L369.36 234.65 L371.79 233.32 L373.78 234.65 Z" style="fill:#930;fill-rule:nonzero;"/>
			<path d="M385.04 318.80 L392.33 318.80 L392.33 320.34 L386.81 325.86 L379.30 325.86 L373.78 320.34 L373.78 234.65 L380.63 234.65 L380.63 318.80 L383.05 320.12 L385.04 318.80 Z" style="fill:#930;fill-rule:nonzero;"/>
			<path d="M396.75 234.65 L403.38 234.65 L403.38 232.88 L398.07 228.02 L390.57 228.02 L385.49 232.88 L385.49 318.80 L392.33 318.80 L392.33 234.65 L394.32 233.32 L396.75 234.65 Z" style="fill:#930;fill-rule:nonzero;"/>
			<path d="M408.01 318.80 L415.08 318.80 L415.08 320.34 L409.78 325.86 L402.27 325.86 L396.75 320.34 L396.75 234.65 L403.38 234.65 L403.38 318.80 L406.02 320.12 L408.01 318.80 Z" style="fill:#930;fill-rule:nonzero;"/>
			<path d="M419.28 233.32 L419.28 228.02 L413.31 228.02 L408.01 232.88 L408.01 318.80 L415.08 318.80 L415.08 234.65 L417.07 233.32 L419.28 233.32 Z" style="fill:#930;fill-rule:nonzero;"/>
			<path d="M221.38 320.12 L221.38 325.86 L227.79 325.86 L232.65 320.34 L232.65 318.80 L226.02 318.80 L223.59 320.12 L221.38 320.12 Z" style="fill:#930;fill-rule:nonzero;"/>
		</g>
	</symbol>
	//5
	<symbol id="leanloop-box2-svg" viewBox="0 0 1000 1000">
		<g >
			<path d="M153.20 182.84 L153.20 102.49 L149.24 54.20 L60.78 54.20 L56.81 102.49 L56.81 182.84 L60.24 185.72 L70.51 188.43 L86.90 190.23 L104.92 190.77 L123.12 190.23 L139.51 188.43 L149.78 185.72 L153.20 182.84 Z" style="fill:#999991;fill-rule:nonzero;"/>
			<path d="M148.34 185.72 L148.34 102.31 L144.74 54.20 L65.28 54.20 L61.68 102.31 L61.86 185.72 L74.11 188.43 L88.88 190.23 L105.10 190.77 L121.31 190.23 L135.91 188.43 L148.34 185.72 Z" style="fill:#a3a39b;fill-rule:nonzero;"/>
			<path d="M143.48 186.80 L143.48 102.31 L140.23 54.20 L69.79 54.20 L66.72 102.31 L66.72 186.80 L71.77 187.88 L77.53 188.43 L90.69 190.23 L105.10 190.77 L119.51 190.23 L132.48 188.43 L139.15 187.88 L143.48 186.80 Z" style="fill:#adada5;fill-rule:nonzero;"/>
			<path d="M138.61 187.88 L138.61 102.31 L135.73 54.20 L74.29 54.20 L71.59 102.31 L71.59 187.88 L81.14 188.79 L92.49 190.23 L105.10 190.77 L117.53 190.23 L129.06 188.79 L138.61 187.88 Z" style="fill:#b8b8b0;fill-rule:nonzero;"/>
			<path d="M133.57 188.79 L133.57 102.31 L131.22 54.20 L78.80 54.20 L76.45 102.31 L76.45 188.79 L84.74 189.87 L94.29 190.23 L105.10 190.77 L115.73 190.23 L125.46 189.87 L133.56 188.79 Z" style="fill:#c2c2ba;fill-rule:nonzero;"/>
			<path d="M128.70 188.79 L128.70 102.31 L126.72 54.20 L83.30 54.20 L81.32 102.31 L81.50 188.79 L88.16 189.87 L96.09 190.23 L105.10 190.77 L113.93 190.23 L122.04 189.87 L128.70 188.79 Z" style="fill:#cfcfc7;fill-rule:nonzero;"/>
			<path d="M123.84 189.87 L123.84 102.31 L122.21 54.20 L87.80 54.20 L86.36 102.31 L86.36 189.87 L91.77 189.87 L105.10 190.77 L118.43 189.87 L123.84 189.87 Z" style="fill:#d9d9d1;fill-rule:nonzero;"/>
			<path d="M118.79 189.87 L118.79 102.31 L117.71 54.20 L92.31 54.20 L91.23 102.31 L91.23 189.87 L95.19 189.87 L105.10 190.77 L114.83 189.87 L118.79 189.87 Z" style="fill:#e3e3db;fill-rule:nonzero;"/>
			<path d="M113.93 189.87 L113.93 102.31 L113.21 54.20 L96.81 54.20 L96.09 102.31 L96.09 189.87 L105.10 190.77 L113.93 189.87 Z" style="fill:#edede5;fill-rule:nonzero;"/>
			<path d="M109.06 190.77 L109.06 102.49 L108.70 54.20 L101.32 54.20 L100.96 102.49 L100.96 190.77 L109.06 190.77 Z" style="fill:#f7f7ef;fill-rule:nonzero;"/>
			<path d="M153.20 182.84 L153.20 102.49 L149.24 54.20 L60.78 54.20 L56.81 102.49 L56.81 182.84 L60.24 185.72 L70.51 188.43 L86.90 190.23 L104.92 190.77 L123.12 190.23 L139.51 188.43 L149.78 185.72 L153.20 182.84" style="fill:none;stroke:#000;stroke-width:0.36px;"/>
			<path d="M58.80 55.46 L58.80 52.76 L151.22 52.76 L151.22 55.46 L147.98 58.35 L137.89 61.05 L122.40 62.67 L104.92 63.21 L87.62 62.67 L71.95 61.05 L62.04 58.35 L58.80 55.46 Z" style="fill:#ccccc4;fill-rule:nonzero;stroke:#000;stroke-width:0.36px;"/>
			<ellipse cx="104.919" cy="53.121" rx="46.123" ry="7.747" style="fill:#e5e5dd;stroke:#000;stroke-width:0.36px;"/>
			<rect x="131.223" y="42.131" rx="0" ry="0" width="18.917" height="4.144" style="fill:#e5e5e5;fill-rule:nonzero;stroke:#000;stroke-width:0.36px;"/>
			<rect x="61.859" y="51.139" rx="0" ry="0" width="72.247" height="4.144" style="fill:#e5e5e5;fill-rule:nonzero;stroke:#000;stroke-width:0.36px;"/>
			<path d="M61.86 51.14 L82.94 39.07 L155.18 39.07 L150.14 42.13 L131.04 42.13 L121.13 47.18 L141.13 47.18 L134.11 51.14 L61.86 51.14 Z" style="fill:#fff;fill-rule:nonzero;stroke:#000;stroke-width:0.36px;"/>
			<path d="M131.04 46.46 L131.04 42.13 L121.13 47.18 L129.06 47.18 L131.04 46.46 Z" style="fill:#b2b2b2;fill-rule:nonzero;stroke:#000;stroke-width:0.36px;"/>
			<path d="M155.18 43.03 L155.18 39.07 L150.14 42.13 L150.14 46.28 L155.18 43.03 Z" style="fill:#b2b2b2;fill-rule:nonzero;stroke:#000;stroke-width:0.36px;"/>
			<path d="M141.13 51.50 L141.13 47.18 L134.11 51.14 L134.11 55.28 L141.13 51.50 Z" style="fill:#b2b2b2;fill-rule:nonzero;stroke:#000;stroke-width:0.36px;"/>
			<path d="M106.90 43.03 L115.91 39.07 L116.09 43.03 L106.90 47.18 L106.90 43.03 Z" style="fill:#98987f;fill-rule:nonzero;stroke:#000;stroke-width:0.36px;"/>
			<path d="M111.04 25.01 L120.05 21.05 L120.05 39.07 L111.04 43.03 L111.04 25.02 Z" style="fill:#cbcbb2;fill-rule:nonzero;stroke:#000;stroke-width:0.36px;"/>
			<rect x="80.957" y="25.015" rx="0" ry="0" width="30.088" height="18.017" style="fill:#e5e5cc;fill-rule:nonzero;stroke:#000;stroke-width:0.36px;"/>
			<rect x="84.921" y="43.032" rx="0" ry="0" width="21.980" height="4.144" style="fill:#cbcbb2;fill-rule:nonzero;stroke:#000;stroke-width:0.36px;"/>
			<path d="M111.04 25.01 L120.05 21.05 L89.97 21.05 L80.96 25.01 L111.04 25.01 Z" style="fill:#f2f2e5;fill-rule:nonzero;stroke:#000;stroke-width:0.36px;"/>
			<rect x="85.821" y="25.015" rx="0" ry="0" width="12.071" height="18.017" style="fill:#4c4c4c;fill-rule:nonzero;"/>
			<path d="M97.89 25.01 L106.90 21.05 L95.01 21.05 L85.82 25.01 L97.89 25.01 Z" style="fill:#666;fill-rule:nonzero;"/>
			<path d="M111.04 25.01 L117.89 22.13 L118.07 38.17 L111.04 41.05 L111.04 25.01 Z" style="fill:#7f7f7f;fill-rule:nonzero;stroke:#000;stroke-width:0.36px;"/>
			<path d="M113.03 27.54 L113.21 25.74 L113.93 25.01 L114.83 25.74 L115.01 27.54 L114.83 29.34 L113.93 30.06 L113.21 29.34 L113.03 27.54 Z" style="fill:#fc0;fill-rule:nonzero;"/>
			<path d="M113.03 34.56 L113.21 32.76 L114.11 32.04 L114.83 32.76 L115.01 34.56 L114.83 36.37 L114.11 37.09 L113.21 36.37 L113.03 34.56 Z" style="fill:#fc0;fill-rule:nonzero;"/>
		</g>
	</symbol>
	//6 橙色水泵
	<symbol id="leanloop-box3-svg" viewBox="0 0 1000 1000">
		<g >
			<path d="M3.36 59.94 L7.45 38.68 L19.46 19.46 L38.68 7.45 L59.94 3.36 L81.20 7.45 L100.42 19.46 L112.43 38.68 L116.52 59.94 L112.43 81.20 L100.42 100.42 L81.20 112.43 L59.94 116.52 L38.68 112.43 L19.46 100.42 L7.45 81.20 L3.36 59.94 Z" style="fill:#d6d9d8;fill-rule:nonzero;stroke:#000;stroke-width:0.24px;"/>
			<path d="M31.59 12.73 L31.59 107.15 L116.52 59.94 L31.59 12.73" style="fill:#ff4f09;stroke:#000;stroke-width:0.24px;"/>

		</g>
	</symbol>

	//6 绿色水泵
	<symbol id="leanloop-pumb1-svg" viewBox="0 0 1000 1000">
		<g >
			<path d="M3.36 59.94 L7.45 38.68 L19.46 19.46 L38.68 7.45 L59.94 3.36 L81.20 7.45 L100.42 19.46 L112.43 38.68 L116.52 59.94 L112.43 81.20 L100.42 100.42 L81.20 112.43 L59.94 116.52 L38.68 112.43 L19.46 100.42 L7.45 81.20 L3.36 59.94 Z" style="fill:#d6d9d8;fill-rule:nonzero;stroke:#000;stroke-width:0.24px;"/>
			<path d="M31.59 12.73 L31.59 107.15 L116.52 59.94 L31.59 12.73" style="fill:#6deb66;stroke:#000;stroke-width:0.24px;"/>

		</g>
	</symbol>
	//6 灰色水泵
	<symbol id="leanloop-pumb2-svg" viewBox="0 0 1000 1000">
		<g >
			<path d="M3.36 59.94 L7.45 38.68 L19.46 19.46 L38.68 7.45 L59.94 3.36 L81.20 7.45 L100.42 19.46 L112.43 38.68 L116.52 59.94 L112.43 81.20 L100.42 100.42 L81.20 112.43 L59.94 116.52 L38.68 112.43 L19.46 100.42 L7.45 81.20 L3.36 59.94 Z" style="fill:#d6d9d8;fill-rule:nonzero;stroke:#000;stroke-width:0.24px;"/>
			<path d="M31.59 12.73 L31.59 107.15 L116.52 59.94 L31.59 12.73" style="fill:none;stroke:#000;stroke-width:0.24px;"/>

		</g>
	</symbol>
	//7
	<symbol id="leanloop-box4-svg" viewBox="0 0 1000 1000">
		<rect xmlns="http://www.w3.org/2000/svg" x="1104" y="536" rx="0" ry="0" width="774.440" height="9" fill="#669ccd" fill-opacity="1" stroke="#669ccd" stroke-opacity="1" transform="matrix(1,0,0,1,-815.248,-193.156)"/>
	</symbol>
	//8
	<symbol id="leanloop-box5-svg" viewBox="0 0 1000 1000">
		<g >
			<rect x="182.002" y="47.851" rx="0" ry="0" width="76.797" height="5.325" style="fill:#336;fill-rule:nonzero;stroke:#000;stroke-width:0.56px;"/>
			<rect x="60.641" y="47.851" rx="0" ry="0" width="77.077" height="5.325" style="fill:#336;fill-rule:nonzero;stroke:#000;stroke-width:0.56px;"/>
			<rect x="187.327" y="47.851" rx="0" ry="0" width="66.707" height="5.325" style="fill:#47477a;fill-rule:nonzero;"/>
			<rect x="66.246" y="47.851" rx="0" ry="0" width="66.146" height="5.325" style="fill:#47477a;fill-rule:nonzero;"/>
			<rect x="192.653" y="47.851" rx="0" ry="0" width="55.495" height="5.325" style="fill:#5e5e91;fill-rule:nonzero;"/>
			<rect x="71.572" y="47.851" rx="0" ry="0" width="55.495" height="5.325" style="fill:#5e5e91;fill-rule:nonzero;"/>
			<rect x="197.978" y="47.851" rx="0" ry="0" width="44.845" height="5.325" style="fill:#7373a6;fill-rule:nonzero;"/>
			<rect x="76.897" y="47.851" rx="0" ry="0" width="44.845" height="5.325" style="fill:#7373a6;fill-rule:nonzero;"/>
			<rect x="203.303" y="47.851" rx="0" ry="0" width="34.194" height="5.325" style="fill:#8787ba;fill-rule:nonzero;"/>
			<rect x="82.222" y="47.851" rx="0" ry="0" width="34.474" height="5.325" style="fill:#8787ba;fill-rule:nonzero;"/>
			<rect x="208.629" y="47.851" rx="0" ry="0" width="23.544" height="5.325" style="fill:#9e9ed1;fill-rule:nonzero;"/>
			<rect x="87.548" y="47.851" rx="0" ry="0" width="23.824" height="5.325" style="fill:#9e9ed1;fill-rule:nonzero;"/>
			<rect x="213.674" y="47.851" rx="0" ry="0" width="13.453" height="5.325" style="fill:#b2b2e5;fill-rule:nonzero;"/>
			<rect x="92.873" y="47.851" rx="0" ry="0" width="13.173" height="5.325" style="fill:#b2b2e5;fill-rule:nonzero;"/>
			<path d="M36.26 116.52 L33.17 66.91 L286.55 66.91 L283.46 116.52 L36.26 116.52 Z" style="fill:#336;fill-rule:nonzero;stroke:#000;stroke-width:0.56px;"/>
			<path d="M49.99 116.52 L46.91 66.91" style="fill:none;stroke:#999;stroke-width:0.56px;"/>
			<path d="M269.73 116.52 L272.53 66.91" style="fill:none;stroke:#999;stroke-width:0.56px;"/>
			<path d="M159.86 116.52 L159.86 66.91" style="fill:none;stroke:#999;stroke-width:0.56px;"/>
			<path d="M88.67 116.52 L85.31 66.91" style="fill:none;stroke:#999;stroke-width:0.56px;"/>
			<path d="M231.33 116.52 L234.41 66.91" style="fill:none;stroke:#999;stroke-width:0.56px;"/>
			<path d="M195.74 116.52 L195.74 66.91" style="fill:none;stroke:#999;stroke-width:0.56px;"/>
			<path d="M123.98 116.52 L123.98 66.91" style="fill:none;stroke:#999;stroke-width:0.56px;"/>
			<rect x="27.848" y="116.520" rx="0" ry="0" width="264.024" height="143.223" style="fill:#b2b2e5;fill-rule:nonzero;"/>
			<path d="M27.85 217.98 L291.87 158.28 L291.87 259.74 L27.85 259.74 L27.85 217.98 Z" style="fill:#adade0;fill-rule:nonzero;"/>
			<path d="M27.85 224.43 L291.87 164.45 L291.87 259.74 L27.85 259.74 L27.85 224.43 Z" style="fill:#a8a8db;fill-rule:nonzero;"/>
			<path d="M27.85 233.40 L291.87 173.14 L291.87 259.74 L27.85 259.74 L27.85 233.40 Z" style="fill:#a3a3d6;fill-rule:nonzero;"/>
			<path d="M27.85 116.52 L291.87 116.52 L291.87 259.74 L27.85 259.74 L27.85 116.52" style="fill:none;stroke:#000;stroke-width:0.56px;"/>
			<rect x="143.604" y="218.542" rx="0" ry="0" width="16.256" height="2.523" style="fill:#336;fill-rule:nonzero;"/>
			<rect x="143.604" y="166.129" rx="0" ry="0" width="16.256" height="2.523" style="fill:#336;fill-rule:nonzero;"/>
			<path d="M27.85 116.52 L27.85 53.18 L291.87 53.18 L291.87 116.52 L286.55 116.52 L286.55 66.91 L33.17 66.91 L33.17 116.52 L27.85 116.52 Z" style="fill:#b2b2e5;fill-rule:nonzero;stroke:#000;stroke-width:0.56px;"/>
			<path d="M27.85 121.85 L291.87 121.85" style="fill:none;stroke:#4c4c7f;stroke-width:0.56px;"/>
			<path d="M27.85 248.53 L291.87 248.53" style="fill:none;stroke:#4c4c7f;stroke-width:0.56px;"/>
			<path d="M131.83 121.85 L131.83 248.53" style="fill:none;stroke:#4c4c7f;stroke-width:0.56px;"/>
			<path d="M137.72 121.85 L137.72 248.53" style="fill:none;stroke:#4c4c7f;stroke-width:0.56px;"/>
			<path d="M93.99 121.85 L93.99 248.53" style="fill:none;stroke:#4c4c7f;stroke-width:0.56px;"/>
			<path d="M143.60 248.53 L143.60 138.66 L226.01 138.66 L226.01 248.53" style="fill:none;stroke:#4c4c7f;stroke-width:0.56px;"/>
			<path d="M66.25 193.60 L88.67 193.60 L88.67 237.60 L66.25 237.60 L66.25 193.60" style="fill:none;stroke:#4c4c7f;stroke-width:0.56px;"/>
			<path d="M27.85 55.70 L291.87 55.70" style="fill:none;stroke:#4c4c7f;stroke-width:0.56px;"/>
		</g>
	</symbol>
	//9
	<symbol id="leanloop-box6-svg">
		<g >
			<rect x="319.751" y="131.437" rx="0" ry="0" width="195.413" height="88.010" style="fill:#330;fill-rule:nonzero;"/>
			<path d="M329.70 82.71 L241.69 82.71 L241.69 190.11 L300.36 190.11 L300.36 141.38 L329.70 141.38 L329.70 82.71 Z" style="fill:#7f7f59;fill-rule:nonzero;stroke:#000;stroke-width:0.99px;"/>
			<path d="M329.70 92.65 L251.63 92.65 L251.63 180.66 L290.42 180.66 L290.42 131.44 L329.70 131.44 L329.70 92.65 Z" style="fill:#b2b29b;fill-rule:nonzero;"/>
			<path d="M329.70 102.60 L261.08 102.60 L261.08 170.72 L280.47 170.72 L280.47 121.99 L329.70 121.99 L329.70 102.60 Z" style="fill:#ccccbd;fill-rule:nonzero;"/>
			<path d="M241.69 82.71 L300.36 141.38" style="fill:none;stroke:#000;stroke-width:0.99px;"/>
			<rect x="104.947" y="170.719" rx="0" ry="0" width="263.533" height="48.729" style="fill:#4c4c16;fill-rule:nonzero;stroke:#000;stroke-width:0.99px;"/>
			<rect x="104.947" y="180.663" rx="0" ry="0" width="263.533" height="38.784" style="fill:#666638;fill-rule:nonzero;"/>
			<rect x="104.947" y="192.597" rx="0" ry="0" width="263.533" height="26.851" style="fill:#7f7f59;fill-rule:nonzero;"/>
			<rect x="104.947" y="205.028" rx="0" ry="0" width="263.533" height="14.420" style="fill:#99997a;fill-rule:nonzero;"/>
			<path d="M95.50 219.45 L202.40 219.45 L202.40 190.11 L339.14 190.11 L339.14 219.45 L544.50 219.45 L544.50 356.19 L95.50 356.19 L95.50 219.45 Z" style="fill:#666638;fill-rule:nonzero;stroke:#000;stroke-width:0.99px;"/>
			<path d="M95.50 230.88 L212.35 230.88 L212.35 192.60 L329.70 192.60 L329.70 230.88 L544.50 230.88 L544.50 344.25 L95.50 344.25 L95.50 230.88 Z" style="fill:#7a7a51;fill-rule:nonzero;"/>
			<rect x="95.499" y="242.817" rx="0" ry="0" width="449.001" height="89.999" style="fill:#8f8f6e;fill-rule:nonzero;"/>
			<rect x="95.499" y="254.254" rx="0" ry="0" width="449.001" height="66.629" style="fill:#a3a387;fill-rule:nonzero;"/>
			<rect x="95.499" y="266.187" rx="0" ry="0" width="449.001" height="43.259" style="fill:#b8b8a4;fill-rule:nonzero;"/>
			<rect x="95.499" y="278.121" rx="0" ry="0" width="449.001" height="19.392" style="fill:#ccccbd;fill-rule:nonzero;"/>
			<rect x="85.555" y="268.176" rx="0" ry="0" width="9.945" height="107.402" style="fill:#99997a;fill-rule:nonzero;stroke:#000;stroke-width:0.99px;"/>
			<rect x="85.555" y="209.503" rx="0" ry="0" width="9.945" height="58.673" style="fill:#ccccbd;fill-rule:nonzero;stroke:#000;stroke-width:0.99px;"/>
			<rect x="544.003" y="268.176" rx="0" ry="0" width="9.945" height="107.402" style="fill:#99997a;fill-rule:nonzero;stroke:#000;stroke-width:0.99px;"/>
			<rect x="544.003" y="209.503" rx="0" ry="0" width="9.945" height="58.673" style="fill:#ccccbd;fill-rule:nonzero;stroke:#000;stroke-width:0.99px;"/>
			<rect x="222.294" y="121.990" rx="0" ry="0" width="97.458" height="126.794" style="fill:#b2b29b;fill-rule:nonzero;stroke:#000;stroke-width:0.99px;"/>
			<rect x="241.686" y="258.729" rx="0" ry="0" width="58.673" height="68.121" style="fill:#b2b29b;fill-rule:nonzero;stroke:#000;stroke-width:0.99px;"/>
			<path d="M329.70 151.33 L329.70 73.26 L397.82 53.37 L397.82 43.92 L437.10 43.92 L456.49 53.37 L456.49 170.72 L437.10 180.66 L397.82 180.66 L397.82 170.72 L329.70 151.33 Z" style="fill:#7f7f59;fill-rule:nonzero;"/>
			<rect x="466.435" y="43.924" rx="0" ry="0" width="68.121" height="97.458" style="fill:#b2b29b;fill-rule:nonzero;stroke:#000;stroke-width:0.99px;"/>
			<path d="M329.70 145.36 L329.70 78.73 L397.82 61.83 L397.82 53.87 L437.10 53.87 L456.49 61.83 L456.49 162.27 L437.10 170.72 L397.82 170.72 L397.82 162.27 L329.70 145.36 Z" style="fill:#99997a;fill-rule:nonzero;"/>
			<path d="M329.70 139.89 L329.70 84.20 L397.82 70.28 L397.82 63.32 L437.10 63.32 L456.49 70.28 L456.49 153.81 L437.10 160.77 L397.82 160.77 L397.82 153.81 L329.70 139.89 Z" style="fill:#b2b29b;fill-rule:nonzero;"/>
			<path d="M329.70 128.95 L329.70 95.14 L397.82 86.69 L397.82 82.71 L437.10 82.71 L456.49 86.69 L456.49 137.40 L437.10 141.38 L397.82 141.38 L397.82 137.40 L329.70 128.95 Z" style="fill:#ccccbd;fill-rule:nonzero;"/>
			<path d="M329.70 117.51 L329.70 106.58 L397.82 103.59 L397.82 102.10 L437.10 102.10 L456.49 103.59 L456.49 120.50 L437.10 121.99 L397.82 121.99 L397.82 120.50 L329.70 117.51 Z" style="fill:#e5e5dd;fill-rule:nonzero;"/>
			<path d="M329.70 151.33 L329.70 73.26 L397.82 53.37 L397.82 43.92 L437.10 43.92 L456.49 53.37 L456.49 170.72 L437.10 180.66 L397.82 180.66 L397.82 170.72 L329.70 151.33" style="fill:none;stroke:#000;stroke-width:0.99px;"/>
			<path d="M397.82 170.72 L397.82 53.37" style="fill:none;stroke:#000;stroke-width:0.99px;"/>
			<path d="M437.10 180.66 L437.10 43.92" style="fill:none;stroke:#000;stroke-width:0.99px;"/>
			<path d="M407.76 180.66 L407.76 43.92" style="fill:none;stroke:#000;stroke-width:0.99px;"/>
			<path d="M427.15 43.92 L427.15 180.66" style="fill:none;stroke:#000;stroke-width:0.99px;"/>
			<rect x="446.546" y="180.663" rx="0" ry="0" width="58.673" height="38.784" style="fill:#7f7f59;fill-rule:nonzero;"/>
			<rect x="446.546" y="183.149" rx="0" ry="0" width="58.673" height="33.812" style="fill:#99997a;fill-rule:nonzero;"/>
			<rect x="446.546" y="186.133" rx="0" ry="0" width="58.673" height="27.845" style="fill:#b2b29b;fill-rule:nonzero;"/>
			<rect x="446.546" y="191.602" rx="0" ry="0" width="58.673" height="16.906" style="fill:#ccccbd;fill-rule:nonzero;"/>
			<rect x="446.546" y="197.072" rx="0" ry="0" width="58.673" height="5.967" style="fill:#e5e5dd;fill-rule:nonzero;"/>
			<path d="M446.55 180.66 L505.22 180.66 L505.22 219.45 L446.55 219.45 L446.55 180.66" style="fill:none;stroke:#000;stroke-width:0.99px;"/>
			<path d="M446.55 190.11 L388.37 190.11 L388.37 151.33 L383.40 151.33 L383.40 195.08 L446.55 195.08 L446.55 190.11 Z" style="fill:#666638;fill-rule:nonzero;stroke:#000;stroke-width:0.99px;"/>
			<rect x="400.303" y="200.055" rx="0" ry="0" width="46.243" height="11.934" style="fill:#99997a;fill-rule:nonzero;stroke:#000;stroke-width:0.99px;"/>
			<path d="M397.82 219.45 L397.82 180.66 L388.37 180.66 L388.37 185.14 L392.85 185.14 L392.85 219.45 L397.82 219.45 Z" style="fill:#99997a;fill-rule:nonzero;stroke:#000;stroke-width:0.99px;"/>
			<rect x="354.060" y="180.663" rx="0" ry="0" width="29.337" height="4.475" style="fill:#99997a;fill-rule:nonzero;stroke:#000;stroke-width:0.99px;"/>
			<rect x="253.619" y="153.813" rx="0" ry="0" width="34.309" height="46.243" style="fill:#4c4c4c;fill-rule:nonzero;"/>
			<rect x="256.603" y="156.299" rx="0" ry="0" width="28.840" height="41.270" style="fill:#e5e5e5;fill-rule:nonzero;"/>
			<rect x="236.713" y="229.392" rx="0" ry="0" width="68.618" height="14.420" style="fill:#4c4c4c;fill-rule:nonzero;"/>
			<rect x="241.686" y="234.364" rx="0" ry="0" width="29.337" height="4.475" style="fill:#900;fill-rule:nonzero;"/>
			<rect x="95.499" y="160.774" rx="0" ry="0" width="9.447" height="58.673" style="fill:#b2b29b;fill-rule:nonzero;stroke:#000;stroke-width:0.99px;"/>
			<path d="M314.78 126.96 L226.77 126.96 L226.77 243.81" style="fill:none;stroke:#fff;stroke-width:0.99px;"/>
			<path d="M295.39 263.20 L246.66 263.20 L246.66 321.88" style="fill:none;stroke:#fff;stroke-width:0.99px;"/>
			<rect x="285.940" y="307.458" rx="0" ry="0" width="4.475" height="4.475" style="fill-rule:nonzero;"/>
			<rect x="251.630" y="273.149" rx="0" ry="0" width="4.475" height="4.972" style="fill-rule:nonzero;"/>
			<rect x="285.940" y="273.149" rx="0" ry="0" width="4.475" height="4.972" style="fill-rule:nonzero;"/>
			<rect x="241.686" y="326.850" rx="0" ry="0" width="58.673" height="2.486" style="fill:#4c4c16;fill-rule:nonzero;"/>
			<rect x="221.796" y="248.784" rx="0" ry="0" width="97.955" height="4.972" style="fill:#4c4c16;fill-rule:nonzero;"/>
			<path d="M470.91 136.41 L470.91 48.90 L529.58 48.90" style="fill:none;stroke:#fff;stroke-width:0.99px;"/>
		</g>
	</symbol>
	//10
	<symbol id="leanloop-box7-svg">
		<g >
			<path stroke="#000" id="svg_2" fill="#a6a6a6" stroke-width="2" d="m412.99997,12.30537l21.9363,0l0,10.57718l-21.9363,0l0,-10.57718z"/>
			<path stroke="#000" id="svg_3" fill="#a6a6a6" stroke-width="2" d="m63.06369,12.30537l21.9363,0l0,10.57718l-21.9363,0l0,-10.57718z"/>
			<path stroke="null" id="svg_4" fill="#d9d9d9" d="m71.42038,12.30537l5.22293,0l0,10.57718l-5.22293,0l0,-10.57718z"/>
			<path stroke="null" id="svg_5" fill="#d9d9d9" d="m421.87895,12.30537l5.22293,0l0,10.57718l-5.22293,0l0,-10.57718z"/>
			<path stroke="#000" id="svg_6" fill="#7f7f7f" stroke-width="2" d="m46.87261,105.51679l-8.35669,0l0,93.87249l8.35669,0l0,-93.87249z"/>
			<path stroke="#000" id="svg_7" fill="#7f7f7f" stroke-width="2" d="m459.48405,105.51679l-7.83439,0l0,93.87249l7.83439,0l0,-93.87249z"/>
			<path stroke="#000" id="svg_8" fill="#999" stroke-width="2" d="m478.80889,91.63423l0,-69.41276l4.70064,3.30537l3.13376,5.28859l2.61146,7.27181l2.08917,9.91611l1.04459,5.28859l1.04459,5.28859l0.52229,5.94966l0.52229,6.61074l0.52229,6.61074l0,6.61074l0,14.54363l0,6.61074l-0.52229,6.61074l-0.52229,6.61074l-0.52229,5.94966l-1.04459,5.94966l-2.08917,9.91611l-2.08917,8.59396l-3.13376,6.61074l-3.13376,3.96644l-3.13376,1.32215l0,-69.41276z"/>
			<path stroke="#000" id="svg_9" fill="#999" stroke-width="2" d="m19.19108,92.29531l0,68.75168l-4.70064,-2.6443l-3.13376,-5.28859l-2.61146,-7.93289l-2.08917,-9.25503l-1.04459,-5.28859l-1.04459,-5.28859l-0.52229,-6.61074l-0.52229,-5.94966l-0.52229,-6.61074l0,-7.27181l0,-13.88255l0,-6.61074l0.52229,-6.61074l0.52229,-6.61074l0.52229,-5.94966l1.04459,-5.94966l2.08917,-9.91611l2.08917,-8.59396l3.13376,-6.61074l3.13376,-3.96644l3.13376,-1.32215l0,69.41276z"/>
			<path stroke="null" id="svg_10" fill="#bfbfbf" d="m19.19108,92.29531l0,44.29195l-4.70064,-1.98322l-3.65605,-5.28859l-2.08917,-5.94966l-1.56688,-6.61074l-1.04459,-7.27181l-0.52229,-8.59396l0,-4.62752l0,-9.25503l0.52229,-8.59396l0.52229,-7.93289l1.56688,-7.27181l1.56688,-5.94966l2.08917,-4.62752l4.17834,-4.62752l3.13376,-0.66107l0,44.95302z"/>
			<path stroke="null" id="svg_11" fill="#bfbfbf" d="m478.80889,91.63423l0,-44.95302l4.70064,1.98322l3.65605,5.94966l2.08917,5.28859l1.56688,6.61074l1.04459,7.93289l0.52229,8.59396l0,3.96644l0,9.25503l-0.52229,8.59396l-0.52229,8.59396l-1.56688,7.27181l-1.56688,5.94966l-2.08917,4.62752l-4.17834,4.62752l-3.13376,0.66107l0,-44.95302z"/>
			<path stroke="#000" id="svg_12" fill="#7f7f7f" stroke-width="2" d="m478.80889,9l-21.9363,0l0,165.92954l21.9363,0l0,-165.92954z"/>
			<path stroke="null" id="svg_13" fill="#7f7f7f" d="m41.12739,22.88255l415.7452,0l0,138.16444l-415.7452,0l0,-138.16444z"/>
			<path stroke="null" id="svg_14" fill="#7f7f7f" d="m41.12739,9l-21.9363,0l0,165.92954l21.9363,0l0,-165.92954z"/>
			<path stroke="null" id="svg_15" fill="#a6a6a6" d="m478.80889,25.52685l-21.9363,0l0,132.87585l21.9363,0l0,-132.87585z"/>
			<path stroke="null" id="svg_16" fill="#a6a6a6" d="m41.12739,36.7651l415.7452,0l0,111.06041l-415.7452,0l0,-111.06041z"/>
			<path stroke="null" id="svg_17" fill="#a6a6a6" d="m41.12739,25.52685l-21.9363,0l0,133.53692l21.9363,0l0,-133.53692z"/>
			<path stroke="null" id="svg_18" fill="#bfbfbf" d="m478.80889,34.12081l-21.9363,0l0,116.349l21.9363,0l0,-116.349z"/>
			<path stroke="null" id="svg_19" fill="#bfbfbf" d="m41.12739,43.37584l415.7452,0l0,97.17786l-415.7452,0l0,-97.17786z"/>
			<path stroke="null" id="svg_20" fill="#bfbfbf" d="m41.12739,34.12081l-21.9363,0l0,116.349l21.9363,0l0,-116.349z"/>
			<path stroke="null" id="svg_21" fill="#e5e5e5" d="m478.80889,67.1745l-21.9363,0l0,49.58054l21.9363,0l0,-49.58054z"/>
			<path stroke="null" id="svg_22" fill="#e5e5e5" d="m41.12739,71.14094l415.7452,0l0,41.64765l-415.7452,0l0,-41.64765z"/>
			<path stroke="null" id="svg_23" fill="#e5e5e5" d="m41.12739,67.1745l-21.9363,0l0,49.58054l21.9363,0l0,-49.58054z"/>
			<path stroke="#000" id="svg_24" fill="none" stroke-width="2" d="m467.84073,9l0,165.92954"/>
			<path stroke="#000" id="svg_25" fill="none" stroke-width="2" d="m41.12739,22.88255l415.7452,0l0,138.16444l-415.7452,0l0,-138.16444"/>
			<path stroke="#000" id="svg_26" fill="none" stroke-width="2" d="m41.12739,9l-21.9363,0l0,165.92954l21.9363,0l0,-165.92954"/>
			<path stroke="#000" id="svg_27" fill="none" stroke-width="2" d="m30.15923,9l0,165.92954"/>
			<path stroke="#000" id="svg_28" fill="#b2b2b2" stroke-width="2" d="m19.19108,199.38927l43.87261,0l0,6.61074l-43.87261,0l0,-6.61074z"/>
			<path stroke="#000" id="svg_29" fill="#b2b2b2" stroke-width="2" d="m434.93628,199.38927l43.87261,0l0,6.61074l-43.87261,0l0,-6.61074z"/>
			<path stroke="null" id="svg_30" fill="#666" d="m63.06369,96.92282l-1.56688,-5.94966l1.56688,-5.94966l4.70064,-1.98322l4.17834,1.98322l2.08917,5.94966l-2.08917,5.94966l-4.17834,1.98322l-4.70064,-1.98322z"/>
			<path stroke="#000" id="svg_31" fill="#bfbfbf" stroke-width="2" d="m449.03819,155.7584l7.83439,0l0,9.25503l-7.83439,0l0,-9.25503z"/>
			<path stroke="#000" id="svg_32" fill="#bfbfbf" stroke-width="2" d="m449.03819,122.04363l7.83439,0l0,8.59396l-7.83439,0l0,-8.59396z"/>
			<path stroke="#000" id="svg_33" fill="#bfbfbf" stroke-width="2" d="m449.03819,87.66779l7.83439,0l0,8.59396l-7.83439,0l0,-8.59396z"/>
			<path stroke="#000" id="svg_34" fill="#bfbfbf" stroke-width="2" d="m449.03819,53.29195l7.83439,0l0,8.59396l-7.83439,0l0,-8.59396z"/>
			<path stroke="#000" id="svg_35" fill="#bfbfbf" stroke-width="2" d="m449.03819,18.91611l7.83439,0l0,9.25503l-7.83439,0l0,-9.25503z"/>
			<path stroke="#000" id="svg_36" fill="#bfbfbf" stroke-width="2" d="m478.80889,155.7584l8.35669,0l0,9.25503l-8.35669,0l0,-9.25503z"/>
			<path stroke="#000" id="svg_37" fill="#bfbfbf" stroke-width="2" d="m478.80889,122.04363l8.35669,0l0,8.59396l-8.35669,0l0,-8.59396z"/>
			<path stroke="#000" id="svg_38" fill="#bfbfbf" stroke-width="2" d="m478.80889,87.66779l8.35669,0l0,8.59396l-8.35669,0l0,-8.59396z"/>
			<path stroke="#000" id="svg_39" fill="#bfbfbf" stroke-width="2" d="m478.80889,53.29195l8.35669,0l0,8.59396l-8.35669,0l0,-8.59396z"/>
			<path stroke="#000" id="svg_40" fill="#bfbfbf" stroke-width="2" d="m478.80889,18.91611l8.35669,0l0,9.25503l-8.35669,0l0,-9.25503z"/>
			<path stroke="#000" id="svg_41" fill="#bfbfbf" stroke-width="2" d="m10.83439,155.7584l8.35669,0l0,9.25503l-8.35669,0l0,-9.25503z"/>
			<path stroke="#000" id="svg_42" fill="#bfbfbf" stroke-width="2" d="m10.83439,122.04363l8.35669,0l0,8.59396l-8.35669,0l0,-8.59396z"/>
			<path stroke="#000" id="svg_43" fill="#bfbfbf" stroke-width="2" d="m10.83439,87.66779l8.35669,0l0,8.59396l-8.35669,0l0,-8.59396z"/>
			<path stroke="#000" id="svg_44" fill="#bfbfbf" stroke-width="2" d="m10.83439,53.29195l8.35669,0l0,8.59396l-8.35669,0l0,-8.59396z"/>
			<path stroke="#000" id="svg_45" fill="#bfbfbf" stroke-width="2" d="m10.83439,18.91611l8.35669,0l0,9.25503l-8.35669,0l0,-9.25503z"/>
			<path stroke="#000" id="svg_46" fill="#bfbfbf" stroke-width="2" d="m41.12739,155.7584l7.83439,0l0,9.25503l-7.83439,0l0,-9.25503z"/>
			<path stroke="#000" id="svg_47" fill="#bfbfbf" stroke-width="2" d="m41.12739,122.04363l7.83439,0l0,8.59396l-7.83439,0l0,-8.59396z"/>
			<path stroke="#000" id="svg_48" fill="#bfbfbf" stroke-width="2" d="m41.12739,87.66779l7.83439,0l0,8.59396l-7.83439,0l0,-8.59396z"/>
			<path stroke="#000" id="svg_49" fill="#bfbfbf" stroke-width="2" d="m41.12739,53.29195l7.83439,0l0,8.59396l-7.83439,0l0,-8.59396z"/>
			<path stroke="#000" id="svg_50" fill="#bfbfbf" stroke-width="2" d="m41.12739,18.91611l7.83439,0l0,9.25503l-7.83439,0l0,-9.25503z"/>
		</g>
	</symbol>
	//阀门
	<symbol id="leanloop-box8-svg" viewBox="0 0 1000 1000">
		<g>
			<path d="M7.00 257.00 L69.00 132.00 L132.00 257.00 L7.00 257.00 Z" style="fill:#0ff;stroke:#000;stroke-width:2"/>
			<path d="M7.00 7.00 L69.00 132.00 L132.00 7.00 L7.00 7.00 Z" style="fill:#0ff;stroke:#000;stroke-width:2"/>
			<circle cx="124" cy="132" r="23" style="fill:#0ff;stroke:#000;stroke-width:2"/>
			<path d="M69.00 132.00 L101.00 132.00" style="fill:none;stroke:#000;stroke-width:2"/>
			<path d="M108.00 144.00 L112.00 117.00 L124.00 144.00 L136.00 117.00 L140.00 144.00" style="fill:none;stroke:#000;stroke-width:2"/>
			<circle cx="69" cy="132" r="7" style="fill:#000;stroke:#000;stroke-width:2"/>
		</g>
	</symbol>
	//固体电蓄热板
	<symbol id="leanloop-box9-svg">
		<g stroke="null" id="leanloop-box2-svg">
			<path stroke="#000" id="svg_1" fill="#ccc" stroke-width="2" d="m0,0l198.00001,0l0,400.99998l-198.00001,0l0,-400.99998z"/>
			<path stroke="#000" id="svg_2" fill="#999" stroke-width="2" d="m184.55729,353.74839l-11.76238,0l-11.20226,-1.27707l-10.08204,-1.27707l-8.68175,-2.12845l-7.00141,-2.55414l-7.56153,-4.2569l-2.24045,-3.40552l-0.56011,-1.27707l0.56011,-1.70276l6.72136,-6.38535l10.08204,-3.40552l8.68175,-2.12845l10.08204,-1.70276l11.20226,-0.85138l11.76238,-0.42569l0,-22.13588l-3.92079,0l-7.84158,0.42569l-7.84158,0.85138l-10.92221,1.70276l-10.08204,2.55414l-9.24187,3.40552l-8.4017,3.83121l-6.72136,4.2569l-7.28147,6.81104l-5.32108,8.93949l-0.84017,3.83121l-0.28006,2.12845l0.28006,1.70276l3.36068,9.79087l5.88119,6.81104l8.68175,5.95966l7.84158,4.2569l8.96181,3.40552l9.80198,2.55414l10.64215,2.12845l7.56153,1.27707l7.56153,0.42569l4.20085,0l3.92079,0l13.44272,0l0,-22.13588l-13.44272,0z"/>
			<path stroke="#000" id="svg_3" fill="#999" stroke-width="2" d="m13.16266,353.74839l11.76238,0l11.20226,-1.27707l10.36209,-1.27707l8.68175,-2.12845l7.28147,-2.55414l7.56153,-4.2569l2.52051,-3.40552l0.28006,-1.27707l-0.28006,-1.70276l-7.00141,-6.38535l-10.36209,-3.40552l-8.68175,-2.12845l-10.36209,-1.70276l-11.20226,-0.85138l-11.76238,-0.42569l0,-22.13588l4.20085,0l7.84158,0.42569l7.84158,0.85138l10.92221,1.70276l10.36209,2.55414l9.24187,3.40552l8.4017,3.83121l7.00141,4.2569l7.28147,6.81104l5.32108,8.93949l0.84017,3.83121l0,2.12845l0,1.70276l-3.36068,9.79087l-6.16124,6.81104l-8.4017,5.95966l-7.84158,4.2569l-8.96181,3.40552l-10.08204,2.55414l-10.92221,2.12845l-7.56153,1.27707l-7.84158,0.42569l-3.92079,0l-4.20085,0l-13.16266,0l0,-22.13588l13.16266,0z"/>
			<path stroke="#000" id="svg_4" fill="#999" stroke-width="2" d="m184.55729,320.97026l0,-22.13588l-5.88119,0l-5.88119,-0.42569l-5.60113,-0.42569l-5.60113,-0.42569l-5.04102,-0.85138l-5.04102,-0.85138l-4.48091,-0.85138l-4.20085,-1.27707l-3.64074,-0.85138l-3.36068,-1.27707l-3.08062,-1.27707l-2.52051,-1.70276l-3.36068,-2.97983l-0.84017,-1.70276l-0.56011,-1.27707l0.56011,-1.70276l2.24045,-2.97983l1.9604,-1.70276l2.52051,-1.27707l3.08062,-1.27707l3.36068,-1.27707l3.64074,-1.27707l4.20085,-1.27707l4.48091,-0.85138l5.04102,-0.85138l5.04102,-0.85138l5.60113,-0.42569l5.60113,-0.42569l5.88119,0l5.88119,-0.42569l0,-22.13588l-3.92079,0l-4.20085,0l-3.64074,0.42569l-3.92079,0.42569l-3.92079,0.42569l-3.64074,0.42569l-3.64074,0.42569l-3.64074,0.85138l-3.36068,0.85138l-3.36068,0.85138l-3.36068,0.85138l-3.08062,0.85138l-3.36068,1.27707l-2.80057,1.27707l-2.80057,1.27707l-2.80057,1.27707l-2.80057,1.27707l-2.24045,1.27707l-2.52051,1.27707l-1.9604,1.70276l-2.24045,1.70276l-3.64074,2.97983l-3.08062,3.83121l-2.24045,3.40552l-1.40028,3.83121l-0.84017,3.83121l-0.28006,2.12845l0.28006,1.70276l0.84017,3.83121l1.40028,3.83121l2.24045,3.83121l3.08062,3.40552l3.64074,2.97983l2.24045,1.70276l1.9604,1.70276l2.52051,1.27707l2.24045,1.27707l2.80057,1.27707l2.80057,1.27707l2.80057,1.27707l2.80057,1.27707l3.36068,1.27707l3.08062,0.85138l3.36068,0.85138l3.36068,0.85138l3.36068,0.85138l3.64074,0.42569l3.64074,0.85138l3.64074,0.42569l3.92079,0.42569l3.92079,0.42569l3.64074,0.42569l4.20085,0l3.92079,0z"/>
			<path stroke="#000" id="svg_5" fill="#999" stroke-width="2" d="m13.16266,320.97026l0,-22.13588l11.76238,-0.42569l11.20226,-0.85138l10.36209,-1.70276l8.68175,-2.12845l7.28147,-2.12845l7.56153,-4.2569l2.52051,-3.40552l0.28006,-1.27707l-0.28006,-1.70276l-7.00141,-5.95966l-10.36209,-3.83121l-8.68175,-2.12845l-10.36209,-1.70276l-11.20226,-0.85138l-5.60113,0l-6.16124,-0.42569l0,-22.13588l8.12164,0l7.84158,0.85138l7.56153,0.85138l10.92221,2.12845l10.08204,2.55414l8.96181,3.83121l7.84158,3.83121l6.4413,4.68259l6.72136,6.81104l4.48091,9.36518l0.28006,1.70276l0,2.12845l0,1.70276l-3.36068,9.36518l-6.16124,7.23673l-8.4017,5.95966l-7.84158,3.83121l-8.96181,3.83121l-10.08204,2.55414l-10.92221,2.12845l-7.56153,0.85138l-7.84158,0.85138l-3.92079,0l-4.20085,0z"/>
			<path stroke="#000" id="svg_6" fill="#b2b2b2" stroke-width="2" d="m184.55729,266.05625l0,-22.13588l-5.88119,0l-5.88119,-0.42569l-5.60113,-0.42569l-5.60113,-0.42569l-5.04102,-0.85138l-5.04102,-0.42569l-4.48091,-1.27707l-4.20085,-0.85138l-3.64074,-1.27707l-3.36068,-0.85138l-3.08062,-1.70276l-2.52051,-1.27707l-3.36068,-2.97983l-0.84017,-2.12845l-0.56011,-1.70276l0.56011,-1.27707l2.24045,-3.40552l1.9604,-1.27707l2.52051,-1.70276l3.08062,-1.27707l3.36068,-1.27707l3.64074,-0.85138l4.20085,-1.27707l4.48091,-0.85138l5.04102,-0.85138l5.04102,-0.85138l5.60113,-0.42569l5.60113,-0.42569l5.88119,-0.42569l5.88119,0l0,-21.2845l-3.92079,0l-4.20085,0l-3.64074,0.42569l-3.92079,0.42569l-3.92079,0.42569l-3.64074,0.42569l-3.64074,0.42569l-3.64074,0.85138l-3.36068,0.85138l-3.36068,0.85138l-3.36068,0.85138l-3.08062,0.85138l-3.36068,0.85138l-2.80057,1.27707l-2.80057,1.27707l-2.80057,0.85138l-2.80057,1.70276l-2.24045,1.27707l-2.52051,1.27707l-1.9604,1.70276l-2.24045,1.27707l-3.64074,3.40552l-3.08062,2.97983l-2.24045,3.83121l-1.40028,3.83121l-0.84017,3.83121l-0.28006,1.70276l0.28006,2.12845l0.84017,3.83121l1.40028,3.83121l2.24045,3.40552l3.08062,3.83121l3.64074,2.97983l2.24045,1.70276l1.9604,1.70276l2.52051,1.27707l2.24045,1.27707l2.80057,1.27707l2.80057,1.27707l2.80057,1.27707l2.80057,1.27707l3.36068,1.27707l3.08062,0.85138l3.36068,0.85138l3.36068,0.85138l3.36068,0.85138l3.64074,0.85138l3.64074,0.42569l3.64074,0.42569l3.92079,0.42569l3.92079,0.42569l3.64074,0.42569l4.20085,0l3.92079,0z"/>
			<path stroke="#000" id="svg_7" fill="#b2b2b2" stroke-width="2" d="m13.16266,266.05625l0,-22.13588l11.76238,-0.42569l11.20226,-0.85138l10.36209,-1.27707l8.68175,-2.12845l7.28147,-2.12845l7.56153,-4.68259l2.52051,-3.40552l0.28006,-1.70276l-0.28006,-1.27707l-7.00141,-6.38535l-10.36209,-3.40552l-8.68175,-2.12845l-10.36209,-1.70276l-11.20226,-0.85138l-5.60113,-0.42569l-6.16124,0l0,-21.2845l8.12164,0l7.84158,0.85138l7.56153,0.85138l10.92221,2.12845l10.08204,2.55414l8.96181,3.40552l7.84158,3.83121l6.4413,4.2569l6.72136,6.38535l4.48091,9.36518l0.28006,2.12845l0,1.70276l0,2.12845l-3.36068,9.36518l-6.16124,6.81104l-8.4017,6.38535l-7.84158,3.83121l-8.96181,3.83121l-10.08204,2.55414l-10.92221,2.12845l-7.56153,0.85138l-7.84158,0.85138l-3.92079,0l-4.20085,0z"/>
			<path stroke="#000" id="svg_8" fill="#b2b2b2" stroke-width="2" d="m184.55729,211.14224l0,-22.13588l-5.88119,0l-5.88119,-0.42569l-5.60113,-0.42569l-5.60113,-0.42569l-5.04102,-0.85138l-5.04102,-0.42569l-4.48091,-0.85138l-4.20085,-1.27707l-3.64074,-1.27707l-3.36068,-0.85138l-3.08062,-1.70276l-2.52051,-1.27707l-3.36068,-2.97983l-0.84017,-1.70276l-0.56011,-2.12845l0.56011,-1.27707l2.24045,-3.40552l1.9604,-1.27707l2.52051,-1.70276l3.08062,-1.27707l3.36068,-1.27707l3.64074,-0.85138l4.20085,-1.27707l4.48091,-0.85138l5.04102,-0.85138l5.04102,-0.85138l5.60113,-0.42569l5.60113,-0.42569l5.88119,-0.42569l5.88119,0l0,-21.2845l-3.92079,0l-4.20085,0l-3.64074,0.42569l-3.92079,0.42569l-3.92079,0.42569l-3.64074,0.42569l-3.64074,0.42569l-3.64074,0.85138l-3.36068,0.85138l-3.36068,0.85138l-3.36068,0.85138l-3.08062,0.85138l-3.36068,1.27707l-2.80057,1.27707l-2.80057,0.85138l-2.80057,1.27707l-2.80057,1.27707l-2.24045,1.70276l-2.52051,1.27707l-1.9604,1.27707l-2.24045,1.70276l-3.64074,3.40552l-3.08062,3.40552l-2.24045,3.40552l-1.40028,3.40552l-0.84017,3.83121l-0.28006,1.70276l0.28006,2.12845l0.84017,3.83121l1.40028,3.83121l2.24045,3.40552l3.08062,3.83121l3.64074,2.97983l2.24045,1.70276l1.9604,1.27707l2.52051,1.70276l2.24045,1.27707l2.80057,1.27707l2.80057,1.27707l2.80057,1.27707l2.80057,1.27707l3.36068,0.85138l3.08062,1.27707l3.36068,0.85138l3.36068,0.85138l3.36068,0.85138l3.64074,0.42569l3.64074,0.85138l3.64074,0.42569l3.92079,0.42569l3.92079,0.42569l3.64074,0.42569l4.20085,0l3.92079,0z"/>
			<path stroke="#000" id="svg_9" fill="#b2b2b2" stroke-width="2" d="m13.16266,211.14224l0,-22.13588l11.76238,-0.42569l11.20226,-0.85138l10.36209,-1.27707l8.68175,-2.12845l7.28147,-2.12845l7.56153,-4.68259l2.52051,-2.97983l0.28006,-2.12845l-0.28006,-1.27707l-7.00141,-6.38535l-10.36209,-3.40552l-8.68175,-2.12845l-10.36209,-1.70276l-11.20226,-0.85138l-5.60113,-0.42569l-6.16124,0l0,-21.2845l8.12164,0l7.84158,0.85138l7.56153,0.85138l10.92221,2.12845l10.08204,2.55414l8.96181,3.40552l7.84158,4.2569l6.4413,4.2569l6.72136,6.81104l4.48091,8.93949l0.28006,1.70276l0,1.70276l0,2.12845l-3.36068,9.36518l-6.16124,6.81104l-8.4017,6.38535l-7.84158,3.83121l-8.96181,3.40552l-10.08204,2.97983l-10.92221,2.12845l-7.56153,0.85138l-7.84158,0.85138l-3.92079,0l-4.20085,0z"/>
			<path stroke="#000" id="svg_10" fill="#e5e5e5" stroke-width="2" d="m184.55729,156.22823l0,-21.2845l-5.88119,-0.42569l-5.88119,0l-5.60113,-0.42569l-5.60113,-0.42569l-5.04102,-0.85138l-5.04102,-0.85138l-4.48091,-0.85138l-4.20085,-1.27707l-3.64074,-1.27707l-3.36068,-1.27707l-3.08062,-1.27707l-2.52051,-1.27707l-3.36068,-2.97983l-0.84017,-1.70276l-0.56011,-1.70276l0.56011,-1.70276l2.24045,-3.40552l1.9604,-1.27707l2.52051,-1.27707l3.08062,-1.70276l3.36068,-1.27707l3.64074,-1.27707l4.20085,-0.85138l4.48091,-0.85138l5.04102,-0.85138l5.04102,-0.42569l5.60113,-0.85138l5.60113,0l5.88119,-0.42569l5.88119,0l0,-22.13588l-3.92079,0l-4.20085,0l-3.64074,0.42569l-3.92079,0.42569l-3.92079,0.42569l-3.64074,0.42569l-3.64074,0.85138l-3.64074,0.42569l-3.36068,0.85138l-3.36068,0.85138l-3.36068,0.85138l-3.08062,0.85138l-3.36068,1.27707l-2.80057,1.27707l-2.80057,1.27707l-2.80057,0.85138l-2.80057,1.70276l-2.24045,1.27707l-2.52051,1.27707l-1.9604,1.70276l-2.24045,1.70276l-3.64074,2.97983l-3.08062,3.40552l-2.24045,3.83121l-1.40028,3.83121l-0.84017,3.83121l-0.28006,1.70276l0.28006,2.12845l0.84017,3.83121l1.40028,3.40552l2.24045,3.40552l3.08062,3.40552l3.64074,3.40552l2.24045,1.27707l1.9604,1.70276l2.52051,1.27707l2.24045,1.70276l2.80057,1.27707l2.80057,1.27707l2.80057,0.85138l2.80057,1.27707l3.36068,0.85138l3.08062,1.27707l3.36068,0.85138l3.36068,0.85138l3.36068,0.85138l3.64074,0.42569l3.64074,0.85138l3.64074,0.42569l3.92079,0.42569l3.92079,0.42569l3.64074,0.42569l4.20085,0l3.92079,0z"/>
			<path stroke="#000" id="svg_11" fill="#e5e5e5" stroke-width="2" d="m13.16266,156.22823l0,-21.2845l11.76238,-0.42569l11.20226,-0.85138l10.36209,-1.70276l8.68175,-2.12845l7.28147,-2.55414l7.56153,-4.2569l2.52051,-2.97983l0.28006,-1.70276l-0.28006,-1.70276l-7.00141,-5.95966l-10.36209,-4.2569l-8.68175,-1.70276l-10.36209,-1.27707l-11.20226,-0.85138l-5.60113,-0.42569l-6.16124,0l0,-22.13588l8.12164,0l7.84158,0.85138l7.56153,0.85138l10.92221,2.12845l10.08204,2.55414l8.96181,3.83121l7.84158,3.83121l6.4413,4.68259l6.72136,6.38535l4.48091,9.36518l0.28006,2.12845l0,1.70276l0,2.12845l-4.76096,10.64225l-6.72136,6.81104l-6.4413,4.2569l-7.84158,4.2569l-8.96181,2.97983l-10.08204,2.97983l-10.92221,2.12845l-7.56153,0.85138l-7.84158,0.85138l-3.92079,0l-4.20085,0z"/>
			<path stroke="#000" id="svg_12" fill="#e5e5e5" stroke-width="2" d="m13.16266,25.11571l8.12164,0l7.84158,0.42569l7.56153,1.27707l10.92221,2.12845l10.08204,2.55414l8.96181,3.40552l7.84158,4.2569l6.4413,4.2569l6.72136,6.81104l4.48091,9.36518l0.28006,2.12845l0,1.70276l0,2.12845l-3.36068,9.36518l-6.16124,6.81104l-8.4017,6.38535l-7.84158,3.83121l-8.96181,3.40552l-10.08204,2.97983l-10.92221,2.12845l-7.56153,0.85138l-7.84158,0.85138l-3.92079,0l-4.20085,0l0,-22.13588l11.76238,-0.42569l11.20226,-0.85138l10.36209,-1.70276l8.68175,-2.12845l7.28147,-2.12845l7.56153,-4.68259l2.52051,-2.97983l0.28006,-1.70276l-0.28006,-1.70276l-7.00141,-5.95966l-10.36209,-3.83121l-8.68175,-2.12845l-10.36209,-1.27707l-11.20226,-1.27707l-11.76238,0l-13.16266,0l0,-22.13588l13.16266,0z"/>
			<path stroke="#000" id="svg_13" fill="#e5e5e5" stroke-width="2" d="m184.55729,25.11571l-8.12164,0l-7.56153,0.42569l-7.56153,1.27707l-10.64215,2.12845l-9.80198,2.55414l-8.96181,3.40552l-7.84158,4.2569l-6.72136,4.2569l-6.72136,6.81104l-4.20085,9.36518l-0.28006,2.12845l-0.28006,1.70276l0.28006,2.12845l3.36068,9.36518l5.88119,6.81104l8.68175,6.38535l7.84158,3.83121l8.96181,3.40552l9.80198,2.97983l10.64215,2.12845l7.56153,0.85138l7.56153,0.85138l4.20085,0l3.92079,0l0,-22.13588l-11.76238,-0.42569l-11.20226,-0.85138l-10.08204,-1.70276l-8.68175,-2.12845l-7.00141,-2.12845l-7.56153,-4.68259l-2.24045,-2.97983l-0.56011,-1.70276l0.56011,-1.70276l6.72136,-5.95966l10.08204,-3.83121l8.68175,-2.12845l10.08204,-1.27707l11.20226,-1.27707l11.76238,0l13.44272,0l0,-22.13588l-13.44272,0z"/>
		</g>
	</symbol>
	//阀门 故障
	<symbol id="leanloop-box10-svg" viewBox="0 0 1000 1000">
		<g>
			<g >
				<g >
					<g >
						<clipPath id="_clip1">
							<rect x="0" y="0" width="71" height="105"/>
						</clipPath>
						<g clip-path="url(#_clip1)">
							<g transform="matrix(1,0,0,1,-1.1605,-1.16462)">
								<path d="M2.824,103.675L27.834,53.251L53.247,103.675L2.824,103.675Z" style="fill:rgb(255,79,8);fill-rule:nonzero;stroke:black;stroke-width:0.81px;"/>
								<path d="M2.824,2.828L27.834,53.251L53.247,2.828L2.824,2.828Z" style="fill:rgb(255,79,8);fill-rule:nonzero;stroke:black;stroke-width:0.81px;"/>
								<g transform="matrix(1.55121,0,0,1.55121,-22.7695,-29.8086)">
									<circle cx="50.02" cy="53.251" r="9.278" style="fill:rgb(255,79,8);stroke:black;stroke-width:0.81px;"/>
								</g>
								<path d="M27.834,53.251L40.742,53.251" style="fill:none;fill-rule:nonzero;stroke:black;stroke-width:0.81px;"/>
								<circle cx="27.834" cy="53.251" r="2.824" style="stroke:black;stroke-width:0.81px;"/>
								<g transform="matrix(7.10387e-17,1.16015,-1.17075,7.16878e-17,47.2868,43.949)">
									<text x="0px" y="0px" style="font-family:'ArialMT', 'Arial', sans-serif;font-size:18px;">M</text>
								</g>
							</g>
						</g>
					</g>
				</g>
			</g>
		</g>
	</symbol>
	//阀门 关闭
	<symbol id="leanloop-box11-svg" viewBox="0 0 1000 1000">
		<g >
			<g >
				<g >
					<g >
						<clipPath id="_clip1">
							<rect x="0" y="0" width="71" height="105"/>
						</clipPath>
						<g clip-path="url(#_clip1)">
							<g transform="matrix(1,0,0,1,-1.1605,-1.16462)">
								<path d="M2.824,103.675L27.834,53.251L53.247,103.675L2.824,103.675Z" style="fill:rgb(215,217,216);fill-rule:nonzero;stroke:black;stroke-width:0.81px;"/>
								<path d="M2.824,2.828L27.834,53.251L53.247,2.828L2.824,2.828Z" style="fill:rgb(215,217,216);fill-rule:nonzero;stroke:black;stroke-width:0.81px;"/>
								<g transform="matrix(1.55121,0,0,1.55121,-22.7695,-29.8086)">
									<circle cx="50.02" cy="53.251" r="9.278" style="fill:rgb(215,217,216);stroke:black;stroke-width:0.81px;"/>
								</g>
								<path d="M27.834,53.251L40.742,53.251" style="fill:none;fill-rule:nonzero;stroke:black;stroke-width:0.81px;"/>
								<circle cx="27.834" cy="53.251" r="2.824" style="stroke:black;stroke-width:0.81px;"/>
								<g transform="matrix(7.10387e-17,1.16015,-1.17075,7.16878e-17,47.2868,43.949)">
									<text x="0px" y="0px" style="font-family:'ArialMT', 'Arial', sans-serif;font-size:18px;">M</text>
								</g>
							</g>
						</g>
					</g>
				</g>
			</g>
		</g>
	</symbol>
	//阀门 正常
	<symbol id="leanloop-box12-svg" viewBox="0 0 1000 1000">
		<g >
			<g >
				<g >
					<g>
						<clipPath id="_clip1">
							<rect x="0" y="0" width="71" height="105"/>
						</clipPath>
						<g clip-path="url(#_clip1)">
							<g transform="matrix(1,0,0,1,-1.1605,-1.16462)">
								<path d="M2.824,103.675L27.834,53.251L53.247,103.675L2.824,103.675Z" style="fill:rgb(0,255,47);fill-rule:nonzero;stroke:black;stroke-width:0.81px;"/>
								<path d="M2.824,2.828L27.834,53.251L53.247,2.828L2.824,2.828Z" style="fill:rgb(0,255,47);fill-rule:nonzero;stroke:black;stroke-width:0.81px;"/>
								<g transform="matrix(1.55121,0,0,1.55121,-22.7695,-29.8086)">
									<circle cx="50.02" cy="53.251" r="9.278" style="fill:rgb(0,255,9);stroke:black;stroke-width:0.81px;"/>
								</g>
								<path d="M27.834,53.251L40.742,53.251" style="fill:none;fill-rule:nonzero;stroke:black;stroke-width:0.81px;"/>
								<circle cx="27.834" cy="53.251" r="2.824" style="stroke:black;stroke-width:0.81px;"/>
								<g transform="matrix(7.10387e-17,1.16015,-1.17075,7.16878e-17,47.2868,43.949)">
									<text x="0px" y="0px" style="font-family:'ArialMT', 'Arial', sans-serif;font-size:18px;">M</text>
								</g>
							</g>
						</g>
					</g>
				</g>
			</g>
		</g>
	</symbol>
	// 刻度
	<symbol id="leanloop-box13-svg" viewBox="0 0 1000 1000">
		<g>
			<g id="svg_1" transform="matrix(1,0,0,1,-645.295,-1458.74) ">
				<g id="svg_2">
					<g id="svg_3" transform="matrix(1,0,0,1,-0.393496,5.04494) ">
						<text id="svg_4" font-family="'ArialMT', 'Arial', sans-serif" font-size="14px" y="1877.51" x="680.112">0m</text>
					</g>
					<g id="svg_5" transform="matrix(1,0,0,1,-0.393496,-46.5221) ">
						<text id="svg_6" font-family="'ArialMT', 'Arial', sans-serif" font-size="14px" y="1877.51" x="680.112">3m</text>
					</g>
					<g id="svg_7" transform="matrix(1,0,0,1,-0.393496,-72.3568) ">
						<text id="svg_8" font-family="'ArialMT', 'Arial', sans-serif" font-size="14px" y="1877.51" x="680.112">4m</text>
					</g>
					<g id="svg_9" transform="matrix(1,0,0,1,-0.393496,-98.1538) ">
						<text id="svg_10" font-family="'ArialMT', 'Arial', sans-serif" font-size="14px" y="1877.51" x="680.112">5m</text>
					</g>
					<g id="svg_11" transform="matrix(1,0,0,1,-0.393496,-124.018) ">
						<text id="svg_12" font-family="'ArialMT', 'Arial', sans-serif" font-size="14px" y="1877.51" x="680.112">6m</text>
					</g>
					<g id="svg_13" transform="matrix(1,0,0,1,-0.393496,-149.857) ">
						<text id="svg_14" font-family="'ArialMT', 'Arial', sans-serif" font-size="14px" y="1877.51" x="680.112">7m</text>
					</g>
					<g id="svg_15" transform="matrix(1,0,0,1,-0.393496,-175.715) ">
						<text id="svg_16" font-family="'ArialMT', 'Arial', sans-serif" font-size="14px" y="1877.51" x="680.112">8m</text>
					</g>
					<g id="svg_17" transform="matrix(1,0,0,1,-0.393496,-201.494) ">
						<text id="svg_18" font-family="'ArialMT', 'Arial', sans-serif" font-size="14px" y="1877.51" x="680.112">9m</text>
					</g>
					<g id="svg_19" transform="matrix(1,0,0,1,-0.393496,-227.351) ">
						<text id="svg_20" font-family="'ArialMT', 'Arial', sans-serif" font-size="14px" y="1877.51" x="680.112">10m</text>
					</g>
					<g id="svg_21" transform="matrix(1,0,0,1,-0.393496,-253.183) ">
						<text id="svg_22" font-family="'ArialMT', 'Arial', sans-serif" font-size="14px" y="1877.51" x="680.112">
							1
							<tspan id="svg_23" y="1878.51px 1878.51px " x="687.859px 695.645px ">1m</tspan>
						</text>
					</g>
					<g id="svg_24" transform="matrix(1,0,0,1,-0.393496,-279.01) ">
						<text id="svg_25" font-family="'ArialMT', 'Arial', sans-serif" font-size="14px" y="1877.51" x="680.112">12m</text>
					</g>
					<g id="svg_26" transform="matrix(1,0,0,1,-0.393496,-304.866) ">
						<text id="svg_27" font-family="'ArialMT', 'Arial', sans-serif" font-size="14px" y="1877.51" x="680.112">13m</text>
					</g>
					<g id="svg_28" transform="matrix(1,0,0,1,-0.393496,-330.694) ">
						<text id="svg_29" font-family="'ArialMT', 'Arial', sans-serif" font-size="14px" y="1877.51" x="680.112">14m</text>
					</g>
					<g id="svg_30" transform="matrix(1,0,0,1,-0.393496,-356.559) ">
						<text id="svg_31" font-family="'ArialMT', 'Arial', sans-serif" font-size="14px" y="1877.51" x="680.112">15m</text>
					</g>
					<g id="svg_32" transform="matrix(1,0,0,1,-0.393496,-19.6589) ">
						<text id="svg_33" font-family="'ArialMT', 'Arial', sans-serif" font-size="14px" y="1877.51" x="680.112">1m</text>
					</g>
					<g id="svg_34" transform="matrix(1,0,0,1,-0.393496,-381.262) ">
						<text id="svg_35" font-family="'ArialMT', 'Arial', sans-serif" font-size="14px" y="1877.51" x="680.112">16m</text>
					</g>
					<g id="svg_36" transform="matrix(1.17133,0,0,1.17133,-161.74,-278.458) ">
						<rect id="svg_37" fill="white" height="365.397" width="28.645" y="1482.24627" x="688.13727"/>
					</g>
					<g id="svg_38" transform="matrix(0.802249,0,0,0.702704,97.3812,580.794) ">
						<rect id="svg_39" fill="rgb(0,255,19)" height="365.397" width="28.645" y="1481.67693" x="687.7445"/>
					</g>
					<g id="svg_40" transform="matrix(1.23388,0,0,0.659773,-152.532,668.707) ">
						<rect id="svg_41" height="0.877" width="11.781" y="1833.11433" x="661.22555"/>
					</g>
					<g id="svg_42" transform="matrix(1.23388,0,0,0.659773,-152.532,642.971) ">
						<rect id="svg_43" height="0.877" width="11.781" y="1833.11433" x="661.22555"/>
					</g>
					<g id="svg_44" transform="matrix(1.23388,0,0,0.659773,-152.532,617.14) ">
						<rect id="svg_45" height="0.877" width="11.781" y="1833.11433" x="661.22555"/>
					</g>
					<g id="svg_46" transform="matrix(1.23388,0,0,0.659773,-152.532,591.305) ">
						<rect id="svg_47" height="0.877" width="11.781" y="1833.11433" x="661.22555"/>
					</g>
					<g id="svg_48" transform="matrix(1.23388,0,0,0.659773,-152.532,565.508) ">
						<rect id="svg_49" height="0.877" width="11.781" y="1833.11433" x="661.22555"/>
					</g>
					<g id="svg_50" transform="matrix(1.23388,0,0,0.659773,-152.532,539.644) ">
						<rect id="svg_51" height="0.877" width="11.781" y="1833.11433" x="661.22555"/>
					</g>
					<g id="svg_52" transform="matrix(1.23388,0,0,0.659773,-152.532,513.804) ">
						<rect id="svg_53" height="0.877" width="11.781" y="1833.11433" x="661.22555"/>
					</g>
					<g id="svg_54" transform="matrix(1.23388,0,0,0.659773,-152.532,487.947) ">
						<rect id="svg_55" height="0.877" width="11.781" y="1833.11433" x="661.22555"/>
					</g>
					<g id="svg_56" transform="matrix(1.23388,0,0,0.659773,-152.532,462.167) ">
						<rect id="svg_57" height="0.877" width="11.781" y="1833.11433" x="661.22555"/>
					</g>
					<g id="svg_58" transform="matrix(1.23388,0,0,0.659773,-152.532,436.311) ">
						<rect id="svg_59" height="0.877" width="11.781" y="1833.11433" x="661.22555"/>
					</g>
					<g id="svg_60" transform="matrix(1.23388,0,0,0.659773,-152.532,410.478) ">
						<rect id="svg_61" height="0.877" width="11.781" y="1833.11433" x="661.22555"/>
					</g>
					<g id="svg_62" transform="matrix(1.23388,0,0,0.659773,-152.532,384.652) ">
						<rect id="svg_63" height="0.877" width="11.781" y="1833.11433" x="661.22555"/>
					</g>
					<g id="svg_64" transform="matrix(1.23388,0,0,0.659773,-152.532,358.796) ">
						<rect id="svg_65" height="0.877" width="11.781" y="1833.11433" x="661.22555"/>
					</g>
					<g id="svg_66" transform="matrix(1.23388,0,0,0.659773,-152.532,332.968) ">
						<rect id="svg_67" height="0.877" width="11.781" y="1833.11433" x="661.22555"/>
					</g>
					<g id="svg_68" transform="matrix(1.23388,0,0,0.659773,-152.532,307.103) ">
						<rect id="svg_69" height="0.877" width="11.781" y="1833.11433" x="661.22555"/>
					</g>
					<g id="svg_70" transform="matrix(1.23388,0,0,0.659773,-152.532,281.288) ">
						<rect id="svg_71" height="0.877" width="11.781" y="1833.11433" x="661.22555"/>
					</g>
					<g id="svg_72" transform="matrix(0.850829,0,0,0.659773,105.574,663.699) ">
						<rect id="svg_73" height="0.877" width="11.781" y="1833.11433" x="660.86068"/>
					</g>
					<g id="svg_74" transform="matrix(0.850829,0,0,0.659773,105.574,637.963) ">
						<rect id="svg_75" height="0.877" width="11.781" y="1833.11433" x="660.86068"/>
					</g>
					<g id="svg_76" transform="matrix(0.850829,0,0,0.659773,105.574,612.132) ">
						<rect id="svg_77" height="0.877" width="11.781" y="1833.11433" x="660.86068"/>
					</g>
					<g id="svg_78" transform="matrix(0.850829,0,0,0.659773,105.574,586.297) ">
						<rect id="svg_79" height="0.877" width="11.781" y="1833.11433" x="660.86068"/>
					</g>
					<g id="svg_80" transform="matrix(0.850829,0,0,0.659773,105.574,560.5) ">
						<rect id="svg_81" height="0.877" width="11.781" y="1833.11433" x="660.86068"/>
					</g>
					<g id="svg_82" transform="matrix(0.850829,0,0,0.659773,105.574,534.636) ">
						<rect id="svg_83" height="0.877" width="11.781" y="1833.11433" x="660.86068"/>
					</g>
					<g id="svg_84" transform="matrix(0.850829,0,0,0.659773,105.574,508.797) ">
						<rect id="svg_85" height="0.877" width="11.781" y="1833.11433" x="660.86068"/>
					</g>
					<g id="svg_86" transform="matrix(0.850829,0,0,0.659773,105.574,482.939) ">
						<rect id="svg_87" height="0.877" width="11.781" y="1833.11433" x="660.86068"/>
					</g>
					<g id="svg_88" transform="matrix(0.850829,0,0,0.659773,105.574,457.16) ">
						<rect id="svg_89" height="0.877" width="11.781" y="1833.11433" x="660.86068"/>
					</g>
					<g id="svg_90" transform="matrix(0.850829,0,0,0.659773,105.574,431.304) ">
						<rect id="svg_91" height="0.877" width="11.781" y="1833.11433" x="660.86068"/>
					</g>
					<g id="svg_92" transform="matrix(0.850829,0,0,0.659773,105.574,405.471) ">
						<rect id="svg_93" height="0.877" width="11.781" y="1833.11433" x="660.86068"/>
					</g>
					<g id="svg_94" transform="matrix(0.850829,0,0,0.659773,105.574,379.644) ">
						<rect id="svg_95" height="0.877" width="11.781" y="1833.11433" x="660.86068"/>
					</g>
					<g id="svg_96" transform="matrix(0.850829,0,0,0.659773,105.574,353.788) ">
						<rect id="svg_97" height="0.877" width="11.781" y="1833.11433" x="660.86068"/>
					</g>
					<g id="svg_98" transform="matrix(0.850829,0,0,0.659773,105.574,327.961) ">
						<rect id="svg_99" height="0.877" width="11.781" y="1833.11433" x="660.86068"/>
					</g>
					<g id="svg_100" transform="matrix(0.850829,0,0,0.659773,105.574,302.095) ">
						<rect id="svg_101" height="0.877" width="11.781" y="1833.11433" x="660.86068"/>
					</g>
					<g id="svg_102" transform="matrix(0.850829,0,0,0.659773,105.574,653.267) ">
						<rect id="svg_103" height="0.877" width="11.781" y="1833.11433" x="660.86068"/>
					</g>
					<g id="svg_104" transform="matrix(0.850829,0,0,0.659773,105.574,627.531) ">
						<rect id="svg_105" height="0.877" width="11.781" y="1833.11433" x="660.86068"/>
					</g>
					<g id="svg_106" transform="matrix(0.850829,0,0,0.659773,105.574,601.7) ">
						<rect id="svg_107" height="0.877" width="11.781" y="1833.11433" x="660.86068"/>
					</g>
					<g id="svg_108" transform="matrix(0.850829,0,0,0.659773,105.574,575.865) ">
						<rect id="svg_109" height="0.877" width="11.781" y="1833.11433" x="660.86068"/>
					</g>
					<g id="svg_110" transform="matrix(0.850829,0,0,0.659773,105.574,550.068) ">
						<rect id="svg_111" height="0.877" width="11.781" y="1833.11433" x="660.86068"/>
					</g>
					<g id="svg_112" transform="matrix(0.850829,0,0,0.659773,105.574,524.204) ">
						<rect id="svg_113" height="0.877" width="11.781" y="1833.11433" x="660.86068"/>
					</g>
					<g id="svg_114" transform="matrix(0.850829,0,0,0.659773,105.574,498.364) ">
						<rect id="svg_115" height="0.877" width="11.781" y="1833.11433" x="660.86068"/>
					</g>
					<g id="svg_116" transform="matrix(0.850829,0,0,0.659773,105.574,472.507) ">
						<rect id="svg_117" height="0.877" width="11.781" y="1833.11433" x="660.86068"/>
					</g>
					<g id="svg_118" transform="matrix(0.850829,0,0,0.659773,105.574,446.728) ">
						<rect id="svg_119" height="0.877" width="11.781" y="1833.11433" x="660.86068"/>
					</g>
					<g id="svg_120" transform="matrix(0.850829,0,0,0.659773,105.574,420.871) ">
						<rect id="svg_121" height="0.877" width="11.781" y="1833.11433" x="660.86068"/>
					</g>
					<g id="svg_122" transform="matrix(0.850829,0,0,0.659773,105.574,395.038) ">
						<rect id="svg_123" height="0.877" width="11.781" y="1833.11433" x="660.86068"/>
					</g>
					<g id="svg_124" transform="matrix(0.850829,0,0,0.659773,105.574,369.212) ">
						<rect id="svg_125" height="0.877" width="11.781" y="1833.11433" x="660.86068"/>
					</g>
					<g id="svg_126" transform="matrix(0.850829,0,0,0.659773,105.574,343.356) ">
						<rect id="svg_127" height="0.877" width="11.781" y="1833.11433" x="660.86068"/>
					</g>
					<g id="svg_128" transform="matrix(0.850829,0,0,0.659773,105.574,317.528) ">
						<rect id="svg_129" height="0.877" width="11.781" y="1833.11433" x="660.86068"/>
					</g>
					<g id="svg_130" transform="matrix(0.850829,0,0,0.659773,105.574,291.663) ">
						<rect id="svg_131" height="0.877" width="11.781" y="1833.11433" x="660.86068"/>
					</g>
					<g id="svg_132" transform="matrix(0.850829,0,0,0.659773,105.574,658.431) ">
						<rect id="svg_133" height="0.877" width="11.781" y="1833.11433" x="660.86068"/>
					</g>
					<g id="svg_134" transform="matrix(0.850829,0,0,0.659773,105.574,632.695) ">
						<rect id="svg_135" height="0.877" width="11.781" y="1833.11433" x="660.86068"/>
					</g>
					<g id="svg_136" transform="matrix(0.850829,0,0,0.659773,105.574,606.864) ">
						<rect id="svg_137" height="0.877" width="11.781" y="1833.11433" x="660.86068"/>
					</g>
					<g id="svg_138" transform="matrix(0.850829,0,0,0.659773,105.574,581.029) ">
						<rect id="svg_139" height="0.877" width="11.781" y="1833.11433" x="660.86068"/>
					</g>
					<g id="svg_140" transform="matrix(0.850829,0,0,0.659773,105.574,555.232) ">
						<rect id="svg_141" height="0.877" width="11.781" y="1833.11433" x="660.86068"/>
					</g>
					<g id="svg_142" transform="matrix(0.850829,0,0,0.659773,105.574,529.368) ">
						<rect id="svg_143" height="0.877" width="11.781" y="1833.11433" x="660.86068"/>
					</g>
					<g id="svg_144" transform="matrix(0.850829,0,0,0.659773,105.574,503.528) ">
						<rect id="svg_145" height="0.877" width="11.781" y="1833.11433" x="660.86068"/>
					</g>
					<g id="svg_146" transform="matrix(0.850829,0,0,0.659773,105.574,477.671) ">
						<rect id="svg_147" height="0.877" width="11.781" y="1833.11433" x="660.86068"/>
					</g>
					<g id="svg_148" transform="matrix(0.850829,0,0,0.659773,105.574,451.891) ">
						<rect id="svg_149" height="0.877" width="11.781" y="1833.11433" x="660.86068"/>
					</g>
					<g id="svg_150" transform="matrix(0.850829,0,0,0.659773,105.574,426.035) ">
						<rect id="svg_151" height="0.877" width="11.781" y="1833.11433" x="660.86068"/>
					</g>
					<g id="svg_152" transform="matrix(0.850829,0,0,0.659773,105.574,400.202) ">
						<rect id="svg_153" height="0.877" width="11.781" y="1833.11433" x="660.86068"/>
					</g>
					<g id="svg_154" transform="matrix(0.850829,0,0,0.659773,105.574,374.376) ">
						<rect id="svg_155" height="0.877" width="11.781" y="1833.11433" x="660.86068"/>
					</g>
					<g id="svg_156" transform="matrix(0.850829,0,0,0.659773,105.574,348.52) ">
						<rect id="svg_157" height="0.877" width="11.781" y="1833.11433" x="660.86068"/>
					</g>
					<g id="svg_158" transform="matrix(0.850829,0,0,0.659773,105.574,322.692) ">
						<rect id="svg_159" height="0.877" width="11.781" y="1833.11433" x="660.86068"/>
					</g>
					<g id="svg_160" transform="matrix(0.850829,0,0,0.659773,105.574,296.827) ">
						<rect id="svg_161" height="0.877" width="11.781" y="1833.11433" x="660.86068"/>
					</g>
					<g id="svg_162" transform="matrix(0.850829,0,0,0.659773,105.574,648.02) ">
						<rect id="svg_163" height="0.877" width="11.781" y="1833.11433" x="660.86068"/>
					</g>
					<g id="svg_164" transform="matrix(0.850829,0,0,0.659773,105.574,622.285) ">
						<rect id="svg_165" height="0.877" width="11.781" y="1833.11433" x="660.86068"/>
					</g>
					<g id="svg_166" transform="matrix(0.850829,0,0,0.659773,105.574,596.453) ">
						<rect id="svg_167" height="0.877" width="11.781" y="1833.11433" x="660.86068"/>
					</g>
					<g id="svg_168" transform="matrix(0.850829,0,0,0.659773,105.574,570.619) ">
						<rect id="svg_169" height="0.877" width="11.781" y="1833.11433" x="660.86068"/>
					</g>
					<g id="svg_170" transform="matrix(0.850829,0,0,0.659773,105.574,544.822) ">
						<rect id="svg_171" height="0.877" width="11.781" y="1833.11433" x="660.86068"/>
					</g>
					<g id="svg_172" transform="matrix(0.850829,0,0,0.659773,105.574,518.958) ">
						<rect id="svg_173" height="0.877" width="11.781" y="1833.11433" x="660.86068"/>
					</g>
					<g id="svg_174" transform="matrix(0.850829,0,0,0.659773,105.574,493.118) ">
						<rect id="svg_175" height="0.877" width="11.781" y="1833.11433" x="660.86068"/>
					</g>
					<g id="svg_176" transform="matrix(0.850829,0,0,0.659773,105.574,467.261) ">
						<rect id="svg_177" height="0.877" width="11.781" y="1833.11433" x="660.86068"/>
					</g>
					<g id="svg_178" transform="matrix(0.850829,0,0,0.659773,105.574,441.481) ">
						<rect id="svg_179" height="0.877" width="11.781" y="1833.11433" x="660.86068"/>
					</g>
					<g id="svg_180" transform="matrix(0.850829,0,0,0.659773,105.574,415.625) ">
						<rect id="svg_181" height="0.877" width="11.781" y="1833.11433" x="660.86068"/>
					</g>
					<g id="svg_182" transform="matrix(0.850829,0,0,0.659773,105.574,389.792) ">
						<rect id="svg_183" height="0.877" width="11.781" y="1833.11433" x="660.86068"/>
					</g>
					<g id="svg_184" transform="matrix(0.850829,0,0,0.659773,105.574,363.966) ">
						<rect id="svg_185" height="0.877" width="11.781" y="1833.11433" x="660.86068"/>
					</g>
					<g id="svg_186" transform="matrix(0.850829,0,0,0.659773,105.574,338.11) ">
						<rect id="svg_187" height="0.877" width="11.781" y="1833.11433" x="660.86068"/>
					</g>
					<g id="svg_188" transform="matrix(0.850829,0,0,0.659773,105.574,312.282) ">
						<rect id="svg_189" height="0.877" width="11.781" y="1833.11433" x="660.86068"/>
					</g>
					<g id="svg_190" transform="matrix(0.850829,0,0,0.659773,105.574,286.417) ">
						<rect id="svg_191" height="0.877" width="11.781" y="1833.11433" x="660.86068"/>
					</g>
				</g>
			</g>
		</g>
	</symbol>
</svg>