<svg xmlns="http://www.w3.org/2000/svg" display="none">
	//	风扇
	<symbol id="leanloop-fan-svg" viewBox="0 0 50 50">
		<g>
			<path d="M155.99 35.00 L155.99 191.48 L56.19 191.48 L56.19 35.00 L155.99 35.00 Z" style="fill:#bedbf7;fill-rule:nonzero;" />
			<path d="M85.17 35.00 L126.83 191.48 L56.19 191.48 L56.19 35.00 L85.17 35.00 Z" style="fill:#c6d6e5;fill-rule:nonzero;" />
			<path d="M80.83 35.00 L122.48 191.48 L56.19 191.48 L56.19 35.00 L80.83 35.00 Z" style="fill:#fff;fill-rule:nonzero;" />
			<path d="M74.67 35.00 L116.32 191.48 L56.19 191.48 L56.19 35.00 L74.67 35.00 Z" style="fill:#c3e0fd;fill-rule:nonzero;" />
			<path d="M155.99 35.00 L155.99 191.48 L56.19 191.48 L56.19 35.00 L155.99 35.00" style="fill:none;stroke:#000;stroke-width:0.36px;" />
			<path d="M86.26 48.23 L93.68 44.24 L102.02 42.07 L110.17 42.07 L118.32 44.24 L125.56 48.23 L131.72 54.38 L135.70 61.63 L137.88 69.78 L137.88 78.29 L135.70 86.26 L131.72 93.68 L86.26 48.23 Z" style="fill:#666;fill-rule:nonzero;" />
			<path d="M76.30 86.26 L73.94 78.29 L73.94 69.78 L76.30 61.63 L80.46 54.38 L125.56 99.48 L118.32 104.01 L110.17 106.00 L102.02 106.00 L93.68 104.01 L86.26 99.48 L80.46 93.68 L76.30 86.26 Z" style="fill:#ccc;fill-rule:nonzero;" />
			<path d="M80.46 54.38 L86.26 48.23 L131.72 93.68 L125.56 99.48 L80.46 54.38 Z" style="fill:#999;fill-rule:nonzero;" />
			<path d="M76.30 86.26 L73.94 78.29 L73.94 69.78 L76.30 61.63 L80.46 54.38 L86.26 48.23 L93.68 44.24 L102.02 42.07 L110.17 42.07 L118.32 44.24 L125.56 48.23 L131.72 54.38 L135.70 61.63 L137.88 69.78 L137.88 78.29 L135.70 86.26 L131.72 93.68 L125.56 99.48 L118.32 104.01 L110.17 106.00 L102.02 106.00 L93.68 104.01 L86.26 99.48 L80.46 93.68 L76.30 86.26" style="fill:none;stroke:#000;stroke-width:0.36px;" />
			<path d="M79.38 84.81 L77.75 77.75 L77.75 70.14 L79.38 62.90 L83.18 56.56 L88.61 51.30 L95.13 47.68 L102.38 45.51 L109.80 45.51 L117.05 47.68 L123.39 51.30 L128.46 56.56 L132.26 62.90 L134.43 70.14 L134.43 77.75 L132.26 84.81 L128.46 91.69 L123.39 96.76 L117.05 100.57 L109.80 102.56 L102.38 102.56 L95.13 100.57 L88.61 96.76 L83.18 91.33 L79.38 84.81 Z" style="fill:#6a8dbc;fill-rule:nonzero;stroke:#000;stroke-width:0.36px;" />
			<path d="M102.92 76.30 L102.38 73.58 L84.09 62.35 L84.81 60.90 L103.65 70.86 L106.36 70.14 L117.59 52.03 L119.04 52.75 L109.08 71.77 L109.80 74.49 L127.91 85.90 L127.19 87.16 L108.35 77.02 L105.28 77.75 L94.05 95.68 L93.14 95.13 L102.92 76.30 Z" style="fill-rule:nonzero;" />
			<path d="M84.81 60.90 L103.65 70.86 L106.36 70.14 L117.59 52.03 L119.04 52.75 L109.08 71.77 L109.80 74.49 L127.91 85.90 L127.19 87.16 L108.35 77.02 L105.28 77.75 L94.05 95.68" style="fill:none;stroke:#b2b2b2;stroke-width:0.36px;" />
			<path d="M117.95 51.30 L119.76 52.03 L119.40 52.75 L117.59 52.03 L117.95 51.30 Z" style="fill:#fff;fill-rule:nonzero;" />
			<path d="M92.78 95.13 L94.41 96.04 L93.68 96.76 L92.42 95.68 L92.78 95.13 Z" style="fill:#fff;fill-rule:nonzero;" />
			<path d="M83.18 61.99 L84.09 60.18 L84.81 60.90 L83.72 62.35 L83.18 61.99 Z" style="fill:#fff;fill-rule:nonzero;" />
			<path d="M127.19 87.16 L127.91 85.90 L128.82 86.26 L127.91 87.53 L127.19 87.16 Z" style="fill:#fff;fill-rule:nonzero;" />
			<path d="M155.99 113.24 L57.28 113.24" style="fill:none;stroke:#036;stroke-width:0.36px;" />
			<path d="M148.74 138.06 L148.74 184.24 L63.26 184.24 L63.26 138.06 L148.74 138.06 Z" style="fill:#f9f9f9;fill-rule:nonzero;" />
			<path d="M145.30 177.00 L145.30 138.06 L148.74 138.06 L148.74 184.24 L145.30 177.00 Z" style="fill:#b5cce4;fill-rule:nonzero;" />
			<path d="M59.82 47.32 L59.82 50.04 L57.82 50.04 L57.82 47.32 L59.82 47.32 Z" style="fill:#003;fill-rule:nonzero;" />
			<path d="M59.82 68.69 L59.82 71.59 L57.82 71.59 L57.82 68.69 L59.82 68.69 Z" style="fill:#003;fill-rule:nonzero;" />
			<path d="M59.82 90.24 L59.82 92.96 L57.82 92.96 L57.82 90.24 L59.82 90.24 Z" style="fill:#003;fill-rule:nonzero;" />
			<path d="M59.82 111.80 L59.82 114.51 L57.82 114.51 L57.82 111.80 L59.82 111.80 Z" style="fill:#003;fill-rule:nonzero;" />
			<path d="M59.82 133.35 L59.82 136.06 L57.82 136.06 L57.82 133.35 L59.82 133.35 Z" style="fill:#003;fill-rule:nonzero;" />
			<path d="M59.82 154.54 L59.82 157.62 L57.82 157.62 L57.82 154.54 L59.82 154.54 Z" style="fill:#003;fill-rule:nonzero;" />
			<path d="M59.82 176.09 L59.82 178.81 L57.82 178.81 L57.82 176.09 L59.82 176.09 Z" style="fill:#003;fill-rule:nonzero;" />
			<path d="M153.81 47.32 L153.81 50.04 L152.18 50.04 L152.18 47.32 L153.81 47.32 Z" style="fill:#003;fill-rule:nonzero;" />
			<path d="M153.81 68.69 L153.81 71.59 L152.18 71.59 L152.18 68.69 L153.81 68.69 Z" style="fill:#003;fill-rule:nonzero;" />
			<path d="M153.81 90.24 L153.81 92.96 L152.18 92.96 L152.18 90.24 L153.81 90.24 Z" style="fill:#003;fill-rule:nonzero;" />
			<path d="M153.81 111.80 L153.81 114.51 L152.18 114.51 L152.18 111.80 L153.81 111.80 Z" style="fill:#003;fill-rule:nonzero;" />
			<path d="M153.81 133.35 L153.81 136.06 L152.18 136.06 L152.18 133.35 L153.81 133.35 Z" style="fill:#003;fill-rule:nonzero;" />
			<path d="M153.81 154.54 L153.81 157.62 L152.18 157.62 L152.18 154.54 L153.81 154.54 Z" style="fill:#003;fill-rule:nonzero;" />
			<path d="M153.81 176.09 L153.81 178.81 L152.18 178.81 L152.18 176.09 L153.81 176.09 Z" style="fill:#003;fill-rule:nonzero;" />
			<path d="M153.81 47.32 L153.81 50.04" style="fill:none;stroke:#9cf;stroke-width:0.36px;" />
			<path d="M153.81 68.69 L153.81 71.59" style="fill:none;stroke:#9cf;stroke-width:0.36px;" />
			<path d="M153.81 90.24 L153.81 92.96" style="fill:none;stroke:#9cf;stroke-width:0.36px;" />
			<path d="M153.81 111.80 L153.81 114.51" style="fill:none;stroke:#9cf;stroke-width:0.36px;" />
			<path d="M153.81 133.35 L153.81 136.06" style="fill:none;stroke:#9cf;stroke-width:0.36px;" />
			<path d="M153.81 154.90 L153.81 157.25" style="fill:none;stroke:#9cf;stroke-width:0.36px;" />
			<path d="M153.81 176.45 L153.81 178.81" style="fill:none;stroke:#9cf;stroke-width:0.36px;" />
			<path d="M59.82 47.32 L59.82 50.04" style="fill:none;stroke:#9cf;stroke-width:0.36px;" />
			<path d="M59.82 68.69 L59.82 71.59" style="fill:none;stroke:#9cf;stroke-width:0.36px;" />
			<path d="M59.82 90.24 L59.82 92.96" style="fill:none;stroke:#9cf;stroke-width:0.36px;" />
			<path d="M59.82 111.80 L59.82 114.51" style="fill:none;stroke:#9cf;stroke-width:0.36px;" />
			<path d="M59.82 133.35 L59.82 136.06" style="fill:none;stroke:#9cf;stroke-width:0.36px;" />
			<path d="M59.82 154.90 L59.82 157.25" style="fill:none;stroke:#9cf;stroke-width:0.36px;" />
			<path d="M59.82 176.45 L59.82 178.81" style="fill:none;stroke:#9cf;stroke-width:0.36px;" />
			<path d="M127.19 36.63 L127.19 35.00 L84.45 35.00 L84.45 36.63 L127.19 36.63 Z" style="fill:#194c7f;fill-rule:nonzero;" />
			<path d="M127.19 25.51 L127.19 35.00 L84.45 35.00 L84.45 25.51 L127.19 25.51 Z" style="fill:#edf6ff;fill-rule:nonzero;stroke:#000;stroke-width:0.31px;" />
			<path d="M63.26 177.00 L145.30 177.00 L148.74 184.24 L63.26 184.24 L63.26 177.00 Z" style="fill:#c9ddf2;fill-rule:nonzero;" />
			<path d="M148.74 138.06 L148.74 184.24 L63.26 184.24 L63.26 138.06 L148.74 138.06" style="fill:none;stroke:#000;stroke-width:0.36px;" />
		</g>

	</symbol>
	// 机箱
	<symbol id="leanloop-Chassis-svg" viewBox="">
		<g >
			<path d="M28.00 28.00 L735.00 28.00 L735.00 970.00 L28.00 970.00 L28.00 28.00 Z" style="fill:#ccc;stroke:#000;stroke-width:2" />
			<path d="M687.00 859.00 L645.00 859.00 L605.00 856.00 L569.00 853.00 L538.00 848.00 L513.00 842.00 L486.00 832.00 L478.00 824.00 L476.00 821.00 L478.00 817.00 L502.00 802.00 L538.00 794.00 L569.00 789.00 L605.00 785.00 L645.00 783.00 L687.00 782.00 L687.00 730.00 L673.00 730.00 L645.00 731.00 L617.00 733.00 L578.00 737.00 L542.00 743.00 L509.00 751.00 L479.00 760.00 L455.00 770.00 L429.00 786.00 L410.00 807.00 L407.00 816.00 L406.00 821.00 L407.00 825.00 L419.00 848.00 L440.00 864.00 L471.00 878.00 L499.00 888.00 L531.00 896.00 L566.00 902.00 L604.00 907.00 L631.00 910.00 L658.00 911.00 L673.00 911.00 L687.00 911.00 L735.00 911.00 L735.00 859.00 L687.00 859.00 Z" style="fill:#999;stroke:#000;stroke-width:2" />
			<path d="M75.00 859.00 L117.00 859.00 L157.00 856.00 L194.00 853.00 L225.00 848.00 L251.00 842.00 L278.00 832.00 L287.00 824.00 L288.00 821.00 L287.00 817.00 L262.00 802.00 L225.00 794.00 L194.00 789.00 L157.00 785.00 L117.00 783.00 L75.00 782.00 L75.00 730.00 L90.00 730.00 L118.00 731.00 L146.00 733.00 L185.00 737.00 L222.00 743.00 L255.00 751.00 L285.00 760.00 L310.00 770.00 L336.00 786.00 L355.00 807.00 L358.00 816.00 L358.00 821.00 L358.00 825.00 L346.00 848.00 L324.00 864.00 L294.00 878.00 L266.00 888.00 L234.00 896.00 L198.00 902.00 L159.00 907.00 L132.00 910.00 L104.00 911.00 L90.00 911.00 L75.00 911.00 L28.00 911.00 L28.00 859.00 L75.00 859.00 Z" style="fill:#999;stroke:#000;stroke-width:2" />
			<path d="M687.00 782.00 L687.00 730.00 L666.00 730.00 L645.00 729.00 L625.00 728.00 L605.00 727.00 L587.00 725.00 L569.00 723.00 L553.00 721.00 L538.00 718.00 L525.00 716.00 L513.00 713.00 L502.00 710.00 L493.00 706.00 L481.00 699.00 L478.00 695.00 L476.00 692.00 L478.00 688.00 L486.00 681.00 L493.00 677.00 L502.00 674.00 L513.00 671.00 L525.00 668.00 L538.00 665.00 L553.00 662.00 L569.00 660.00 L587.00 658.00 L605.00 656.00 L625.00 655.00 L645.00 654.00 L666.00 654.00 L687.00 653.00 L687.00 601.00 L673.00 601.00 L658.00 601.00 L645.00 602.00 L631.00 603.00 L617.00 604.00 L604.00 605.00 L591.00 606.00 L578.00 608.00 L566.00 610.00 L554.00 612.00 L542.00 614.00 L531.00 616.00 L519.00 619.00 L509.00 622.00 L499.00 625.00 L489.00 628.00 L479.00 631.00 L471.00 634.00 L462.00 637.00 L455.00 641.00 L447.00 645.00 L434.00 652.00 L423.00 661.00 L415.00 669.00 L410.00 678.00 L407.00 687.00 L406.00 692.00 L407.00 696.00 L410.00 705.00 L415.00 714.00 L423.00 723.00 L434.00 731.00 L447.00 738.00 L455.00 742.00 L462.00 746.00 L471.00 749.00 L479.00 752.00 L489.00 755.00 L499.00 758.00 L509.00 761.00 L519.00 764.00 L531.00 767.00 L542.00 769.00 L554.00 771.00 L566.00 773.00 L578.00 775.00 L591.00 776.00 L604.00 778.00 L617.00 779.00 L631.00 780.00 L645.00 781.00 L658.00 782.00 L673.00 782.00 L687.00 782.00 Z" style="fill:#999;stroke:#000;stroke-width:2" />
			<path d="M75.00 782.00 L75.00 730.00 L117.00 729.00 L157.00 727.00 L194.00 723.00 L225.00 718.00 L251.00 713.00 L278.00 703.00 L287.00 695.00 L288.00 692.00 L287.00 688.00 L262.00 674.00 L225.00 665.00 L194.00 660.00 L157.00 656.00 L117.00 654.00 L97.00 654.00 L75.00 653.00 L75.00 601.00 L104.00 601.00 L132.00 603.00 L159.00 605.00 L198.00 610.00 L234.00 616.00 L266.00 625.00 L294.00 634.00 L317.00 645.00 L341.00 661.00 L357.00 683.00 L358.00 687.00 L358.00 692.00 L358.00 696.00 L346.00 718.00 L324.00 735.00 L294.00 749.00 L266.00 758.00 L234.00 767.00 L198.00 773.00 L159.00 778.00 L132.00 780.00 L104.00 782.00 L90.00 782.00 L75.00 782.00 Z" style="fill:#999;stroke:#000;stroke-width:2" />
			<path d="M687.00 653.00 L687.00 601.00 L666.00 601.00 L645.00 600.00 L625.00 599.00 L605.00 598.00 L587.00 596.00 L569.00 595.00 L553.00 592.00 L538.00 590.00 L525.00 587.00 L513.00 585.00 L502.00 581.00 L493.00 578.00 L481.00 571.00 L478.00 566.00 L476.00 562.00 L478.00 559.00 L486.00 551.00 L493.00 548.00 L502.00 544.00 L513.00 541.00 L525.00 538.00 L538.00 536.00 L553.00 533.00 L569.00 531.00 L587.00 529.00 L605.00 527.00 L625.00 526.00 L645.00 525.00 L666.00 524.00 L687.00 524.00 L687.00 474.00 L673.00 474.00 L658.00 474.00 L645.00 475.00 L631.00 476.00 L617.00 477.00 L604.00 478.00 L591.00 479.00 L578.00 481.00 L566.00 483.00 L554.00 485.00 L542.00 487.00 L531.00 489.00 L519.00 491.00 L509.00 494.00 L499.00 497.00 L489.00 499.00 L479.00 503.00 L471.00 506.00 L462.00 509.00 L455.00 513.00 L447.00 516.00 L434.00 524.00 L423.00 531.00 L415.00 540.00 L410.00 549.00 L407.00 558.00 L406.00 562.00 L407.00 567.00 L410.00 576.00 L415.00 585.00 L423.00 593.00 L434.00 602.00 L447.00 609.00 L455.00 613.00 L462.00 617.00 L471.00 620.00 L479.00 623.00 L489.00 626.00 L499.00 629.00 L509.00 632.00 L519.00 635.00 L531.00 638.00 L542.00 640.00 L554.00 642.00 L566.00 644.00 L578.00 646.00 L591.00 648.00 L604.00 649.00 L617.00 650.00 L631.00 651.00 L645.00 652.00 L658.00 653.00 L673.00 653.00 L687.00 653.00 Z" style="fill:#b2b2b2;stroke:#000;stroke-width:2" />
			<path d="M75.00 653.00 L75.00 601.00 L117.00 600.00 L157.00 598.00 L194.00 595.00 L225.00 590.00 L251.00 585.00 L278.00 574.00 L287.00 566.00 L288.00 562.00 L287.00 559.00 L262.00 544.00 L225.00 536.00 L194.00 531.00 L157.00 527.00 L117.00 525.00 L97.00 524.00 L75.00 524.00 L75.00 474.00 L104.00 474.00 L132.00 476.00 L159.00 478.00 L198.00 483.00 L234.00 489.00 L266.00 497.00 L294.00 506.00 L317.00 516.00 L341.00 531.00 L357.00 553.00 L358.00 558.00 L358.00 562.00 L358.00 567.00 L346.00 589.00 L324.00 605.00 L294.00 620.00 L266.00 629.00 L234.00 638.00 L198.00 644.00 L159.00 649.00 L132.00 651.00 L104.00 653.00 L90.00 653.00 L75.00 653.00 Z" style="fill:#b2b2b2;stroke:#000;stroke-width:2" />
			<path d="M687.00 524.00 L687.00 472.00 L666.00 472.00 L645.00 471.00 L625.00 470.00 L605.00 469.00 L587.00 467.00 L569.00 466.00 L553.00 464.00 L538.00 461.00 L525.00 458.00 L513.00 456.00 L502.00 452.00 L493.00 449.00 L481.00 442.00 L478.00 438.00 L476.00 433.00 L478.00 430.00 L486.00 422.00 L493.00 419.00 L502.00 415.00 L513.00 412.00 L525.00 409.00 L538.00 407.00 L553.00 404.00 L569.00 402.00 L587.00 400.00 L605.00 398.00 L625.00 397.00 L645.00 396.00 L666.00 395.00 L687.00 395.00 L687.00 345.00 L673.00 345.00 L658.00 345.00 L645.00 346.00 L631.00 347.00 L617.00 348.00 L604.00 349.00 L591.00 350.00 L578.00 352.00 L566.00 354.00 L554.00 356.00 L542.00 358.00 L531.00 360.00 L519.00 363.00 L509.00 366.00 L499.00 368.00 L489.00 371.00 L479.00 374.00 L471.00 378.00 L462.00 381.00 L455.00 384.00 L447.00 388.00 L434.00 396.00 L423.00 404.00 L415.00 412.00 L410.00 420.00 L407.00 429.00 L406.00 433.00 L407.00 438.00 L410.00 447.00 L415.00 456.00 L423.00 464.00 L434.00 473.00 L447.00 480.00 L455.00 484.00 L462.00 487.00 L471.00 491.00 L479.00 494.00 L489.00 497.00 L499.00 500.00 L509.00 503.00 L519.00 506.00 L531.00 508.00 L542.00 511.00 L554.00 513.00 L566.00 515.00 L578.00 517.00 L591.00 518.00 L604.00 520.00 L617.00 521.00 L631.00 522.00 L645.00 523.00 L658.00 524.00 L673.00 524.00 L687.00 524.00 Z" style="fill:#b2b2b2;stroke:#000;stroke-width:2" />
			<path d="M75.00 524.00 L75.00 472.00 L117.00 471.00 L157.00 469.00 L194.00 466.00 L225.00 461.00 L251.00 456.00 L278.00 445.00 L287.00 438.00 L288.00 433.00 L287.00 430.00 L262.00 415.00 L225.00 407.00 L194.00 402.00 L157.00 398.00 L117.00 396.00 L97.00 395.00 L75.00 395.00 L75.00 345.00 L104.00 345.00 L132.00 347.00 L159.00 349.00 L198.00 354.00 L234.00 360.00 L266.00 368.00 L294.00 378.00 L317.00 388.00 L341.00 404.00 L357.00 425.00 L358.00 429.00 L358.00 433.00 L358.00 438.00 L346.00 460.00 L324.00 476.00 L294.00 491.00 L266.00 500.00 L234.00 508.00 L198.00 515.00 L159.00 520.00 L132.00 522.00 L104.00 524.00 L90.00 524.00 L75.00 524.00 Z" style="fill:#b2b2b2;stroke:#000;stroke-width:2" />
			<path d="M687.00 395.00 L687.00 345.00 L666.00 344.00 L645.00 344.00 L625.00 343.00 L605.00 342.00 L587.00 340.00 L569.00 338.00 L553.00 336.00 L538.00 333.00 L525.00 330.00 L513.00 327.00 L502.00 324.00 L493.00 321.00 L481.00 314.00 L478.00 310.00 L476.00 306.00 L478.00 302.00 L486.00 294.00 L493.00 291.00 L502.00 288.00 L513.00 284.00 L525.00 281.00 L538.00 278.00 L553.00 276.00 L569.00 274.00 L587.00 272.00 L605.00 271.00 L625.00 269.00 L645.00 269.00 L666.00 268.00 L687.00 268.00 L687.00 216.00 L673.00 216.00 L658.00 216.00 L645.00 217.00 L631.00 218.00 L617.00 219.00 L604.00 220.00 L591.00 222.00 L578.00 223.00 L566.00 225.00 L554.00 227.00 L542.00 229.00 L531.00 231.00 L519.00 234.00 L509.00 237.00 L499.00 240.00 L489.00 242.00 L479.00 246.00 L471.00 249.00 L462.00 252.00 L455.00 256.00 L447.00 260.00 L434.00 267.00 L423.00 275.00 L415.00 284.00 L410.00 293.00 L407.00 302.00 L406.00 306.00 L407.00 311.00 L410.00 320.00 L415.00 328.00 L423.00 336.00 L434.00 344.00 L447.00 352.00 L455.00 355.00 L462.00 359.00 L471.00 362.00 L479.00 366.00 L489.00 369.00 L499.00 372.00 L509.00 374.00 L519.00 377.00 L531.00 379.00 L542.00 382.00 L554.00 384.00 L566.00 386.00 L578.00 388.00 L591.00 389.00 L604.00 391.00 L617.00 392.00 L631.00 393.00 L645.00 394.00 L658.00 395.00 L673.00 395.00 L687.00 395.00 Z" style="fill:#e5e5e5;stroke:#000;stroke-width:2" />
			<path d="M75.00 395.00 L75.00 345.00 L117.00 344.00 L157.00 342.00 L194.00 338.00 L225.00 333.00 L251.00 327.00 L278.00 317.00 L287.00 310.00 L288.00 306.00 L287.00 302.00 L262.00 288.00 L225.00 278.00 L194.00 274.00 L157.00 271.00 L117.00 269.00 L97.00 268.00 L75.00 268.00 L75.00 216.00 L104.00 216.00 L132.00 218.00 L159.00 220.00 L198.00 225.00 L234.00 231.00 L266.00 240.00 L294.00 249.00 L317.00 260.00 L341.00 275.00 L357.00 297.00 L358.00 302.00 L358.00 306.00 L358.00 311.00 L341.00 336.00 L317.00 352.00 L294.00 362.00 L266.00 372.00 L234.00 379.00 L198.00 386.00 L159.00 391.00 L132.00 393.00 L104.00 395.00 L90.00 395.00 L75.00 395.00 Z" style="fill:#e5e5e5;stroke:#000;stroke-width:2" />
			<path d="M75.00 87.00 L104.00 87.00 L132.00 88.00 L159.00 91.00 L198.00 96.00 L234.00 102.00 L266.00 110.00 L294.00 120.00 L317.00 130.00 L341.00 146.00 L357.00 168.00 L358.00 173.00 L358.00 177.00 L358.00 182.00 L346.00 204.00 L324.00 220.00 L294.00 235.00 L266.00 244.00 L234.00 252.00 L198.00 259.00 L159.00 264.00 L132.00 266.00 L104.00 268.00 L90.00 268.00 L75.00 268.00 L75.00 216.00 L117.00 215.00 L157.00 213.00 L194.00 209.00 L225.00 204.00 L251.00 199.00 L278.00 188.00 L287.00 181.00 L288.00 177.00 L287.00 173.00 L262.00 159.00 L225.00 150.00 L194.00 145.00 L157.00 142.00 L117.00 139.00 L75.00 139.00 L28.00 139.00 L28.00 87.00 L75.00 87.00 Z" style="fill:#e5e5e5;stroke:#000;stroke-width:2" />
			<path d="M687.00 87.00 L658.00 87.00 L631.00 88.00 L604.00 91.00 L566.00 96.00 L531.00 102.00 L499.00 110.00 L471.00 120.00 L447.00 130.00 L423.00 146.00 L408.00 168.00 L407.00 173.00 L406.00 177.00 L407.00 182.00 L419.00 204.00 L440.00 220.00 L471.00 235.00 L499.00 244.00 L531.00 252.00 L566.00 259.00 L604.00 264.00 L631.00 266.00 L658.00 268.00 L673.00 268.00 L687.00 268.00 L687.00 216.00 L645.00 215.00 L605.00 213.00 L569.00 209.00 L538.00 204.00 L513.00 199.00 L486.00 188.00 L478.00 181.00 L476.00 177.00 L478.00 173.00 L502.00 159.00 L538.00 150.00 L569.00 145.00 L605.00 142.00 L645.00 139.00 L687.00 139.00 L735.00 139.00 L735.00 87.00 L687.00 87.00 Z" style="fill:#e5e5e5;stroke:#000;stroke-width:2" />
		</g>
	</symbol>
</svg>